<svg width="9" height="12" viewBox="0 0 9 12" fill="none" xmlns="http://www.w3.org/2000/svg">
<path d="M8.95312 11.25C8.95312 11.4373 8.88262 11.6164 8.75786 11.7481C8.63318 11.8797 8.46464 11.9531 8.28947 11.9531H0.710526C0.535358 11.9531 0.366816 11.8797 0.242137 11.7481C0.117377 11.6164 0.046875 11.4373 0.046875 11.25C0.046875 11.0627 0.117377 10.8836 0.242137 10.7519C0.366816 10.6203 0.535358 10.5469 0.710526 10.5469H8.28947C8.46464 10.5469 8.63318 10.6203 8.75786 10.7519C8.88262 10.8836 8.95312 11.0627 8.95312 11.25ZM7.31179 8.22169C6.56552 9.00942 5.55423 9.45197 4.5 9.45312C3.44577 9.45197 2.43448 9.00942 1.68821 8.22169C0.941841 7.43386 0.521645 6.36515 0.520559 5.24995V0.75C0.520559 0.562726 0.591061 0.383599 0.715822 0.251908C0.8405 0.120303 1.00904 0.046875 1.18421 0.046875C1.35938 0.046875 1.52792 0.120303 1.6526 0.251908C1.77736 0.383599 1.84786 0.562726 1.84786 0.75V5.25C1.84786 5.99098 2.1267 6.7021 2.62377 7.22678C3.12092 7.75155 3.79577 8.04688 4.5 8.04688C5.20423 8.04688 5.87908 7.75155 6.37623 7.22678C6.8733 6.7021 7.15214 5.99098 7.15214 5.25V0.75C7.15214 0.562726 7.22264 0.383599 7.3474 0.251908C7.47208 0.120303 7.64062 0.046875 7.81579 0.046875C7.99096 0.046875 8.1595 0.120303 8.28418 0.251908C8.40894 0.383599 8.47944 0.562726 8.47944 0.75V5.24995C8.47836 6.36515 8.05816 7.43386 7.31179 8.22169Z" fill="#94A3B8" stroke="#94A3B8" stroke-width="0.09375"/>
</svg>
