<svg width="344" height="218" viewBox="0 0 344 218" fill="none" xmlns="http://www.w3.org/2000/svg">
<path d="M290.7 202.736C291.7 196.854 292.902 191.217 293.577 185.506C295.706 167.529 297.73 149.535 299.604 131.524C300.363 124.193 300.587 116.798 301.148 109.437C301.318 107.186 300.449 105.963 298.535 105.471C297.023 105.081 295.503 104.638 293.963 104.467C283.458 103.291 272.958 102.115 262.441 101.063C237.9 98.6062 213.355 96.2154 188.81 93.8115C186.343 93.5703 183.868 93.4168 181.263 93.2106C181.442 91.9648 181.649 90.969 181.714 89.9688C182.157 83.2924 184.124 76.3176 178.268 70.6939C179.601 70.9747 181.011 72.1064 181.316 70.1061C181.479 69.0358 181.109 67.5092 180.442 66.7196C178.049 63.8815 169.474 62.3067 166.183 63.978C165.533 64.307 164.764 65.1317 164.687 65.8072C164.614 66.4564 165.277 67.3074 165.789 67.8996C166.219 68.3997 166.894 68.6497 167.597 69.1016C166.687 69.5315 165.89 69.7727 165.24 70.2509C164.618 70.7115 163.667 71.4791 163.728 72.0011C163.814 72.7513 164.59 73.8567 165.228 74.0014C167.304 74.4752 169.446 74.6551 171.571 74.8042C172.799 74.892 174.042 74.7033 176.025 74.598C174.457 80.3402 173.233 85.5647 171.575 90.6181C170.535 93.7896 168.105 95.9961 165.435 97.6937C163.041 99.2159 162.716 99.058 161.278 96.5927C160.522 95.2942 159.827 93.9432 159.002 92.7017C156.995 89.6793 154.995 86.6394 152.825 83.7574C152.374 83.1564 151.2 83.1871 150.354 82.9239C150.346 83.8539 150.013 84.99 150.391 85.6787C151.655 87.9993 153.138 90.1882 154.597 92.3815C157.946 97.4042 163.013 100.817 165.845 106.349C166.106 106.853 166.756 107.292 167.3 107.428C170.779 108.301 175.16 105.489 176.102 101.747C176.545 99.988 176.744 98.1631 177.07 96.369C177.317 94.996 177.968 94.3072 179.207 94.7942C177.781 108.257 176.366 121.619 174.952 134.985C174.282 134.743 174.103 134.528 174.022 134.283C173.258 131.861 172.445 129.457 171.77 127.01C167.215 110.411 169.507 112.389 156.93 96.7243C155.568 95.0267 154.028 93.9563 152.029 93.4957C150.777 93.2062 149.505 92.8904 148.331 92.3596C146.38 91.4822 146.079 90.2364 147.01 88.2405C147.616 86.9421 148.164 85.5998 148.566 84.218C148.709 83.7267 148.355 83.0643 148.229 82.4808C147.709 82.7353 146.941 82.8406 146.713 83.2748C146.002 84.6522 145.441 86.1349 144.925 87.6176C144.673 88.3414 144.864 89.324 144.482 89.9074C141.784 94.0572 138.505 97.3033 133.449 97.4744C124.907 97.7683 116.755 95.8733 108.969 92.1885C105.259 90.4338 104.808 88.5476 107.628 85.4111C112.192 80.3314 115.069 74.3392 116.906 67.6496C117.162 66.724 117.613 65.8598 118.068 64.7281C119.568 65.9563 120.815 66.9477 122.034 67.9786C126.508 71.7643 130.816 75.8044 135.481 79.2961C141.894 84.0951 146.973 83.7266 153.134 78.489C158.543 73.8918 162.505 67.9918 165.805 61.539C166.154 60.8591 166.5 60.1748 166.731 59.7273C169.137 60.8591 171.299 62.0786 173.583 62.8945C175.684 63.6402 176.797 62.798 177.346 60.5169C177.582 59.5299 177.813 58.5078 177.821 57.4989C177.846 51.6647 178.163 45.7953 177.699 40.0006C177.041 31.7098 174.96 23.7787 170.641 16.6943C161.444 1.57793 143.755 -4.21244 129.097 3.23608C121.181 7.26302 114.98 13.5184 110.103 21.2784C101.683 34.6796 98.6799 49.6819 99.2773 65.6449C99.387 68.6103 99.9071 71.602 100.602 74.4796C101.354 77.581 103.451 78.2346 105.58 76.0149C106.783 74.7603 107.961 72.9618 108.189 71.2598C108.502 68.9086 108.1 66.3775 107.653 63.9999C107.104 61.0784 105.873 58.2885 105.503 55.3538C104.312 45.9489 106.978 37.2765 110.416 28.8409C112.996 22.5066 117.341 18.0191 123.046 14.8388C130.495 10.689 138.407 9.39932 146.652 9.5704C148.973 9.61865 151.411 9.71955 151.671 5.93826C152.069 6.66205 152.281 7.1709 152.403 7.70608C152.951 10.1143 154.016 11.6584 156.47 12.5182C161.371 14.2334 165.26 17.6243 167.881 22.5242C170.251 26.9547 171.388 34.1619 170.271 37.7897C169.182 30.6921 165.919 24.871 161.509 19.765C155.751 13.1104 147.92 10.9829 140.15 14.6545C129.768 19.5632 121.985 27.4591 118.385 39.4698C118.3 39.7593 118.08 40.0006 117.857 40.3734C117.507 38.2327 117.272 36.2807 116.861 34.3681C116.061 30.6263 113.769 29.8981 111.147 32.4862C107.73 35.8596 106.641 40.6805 108.518 45.2514C109.721 48.1817 111.217 50.9803 112.643 53.801C114.195 56.8716 114.386 60.0037 113.427 63.3287C111.505 69.9921 108.278 75.8438 104.219 81.2263C100.334 86.3762 95.4411 89.6223 89.3658 90.7321C87.2323 91.1225 85.0826 91.4252 82.9451 91.8069C77.5444 92.7675 72.1152 93.601 66.7511 94.7635C61.9436 95.8031 58.9974 99.2905 58.075 104.366C57.2419 108.928 56.4942 113.604 56.4942 118.232C56.486 141.31 61.9233 163.037 71.1399 183.729C73.3912 188.787 75.9311 193.691 78.5603 199.126C76.5609 199.126 74.7648 199.166 72.9727 199.122C49.6143 198.543 26.2518 197.955 2.89339 197.367C2.14972 197.35 1.40199 197.271 0.66239 197.332C0.426693 197.354 0.219442 197.74 0 197.959C0.207251 198.196 0.386056 198.582 0.62988 198.639C1.15004 198.762 1.70677 198.718 2.24725 198.736C14.9058 199.135 27.5644 199.613 40.227 199.911C52.2801 200.197 64.3331 200.306 76.3903 200.447C77.6866 200.46 78.987 200.183 80.6572 200.003C80.133 198.929 79.8566 198.293 79.5275 197.692C68.4903 177.579 60.9927 156.124 58.5179 132.791C57.6198 124.347 57.3232 115.911 58.6195 107.441C59.6842 100.492 63.1587 96.4128 69.5997 95.2986C69.7989 95.2635 69.998 95.2197 70.2012 95.189C75.8295 94.3248 81.4577 93.4869 87.082 92.5833C93.015 91.6314 98.5377 89.7276 102.87 84.876C107.88 79.2698 111.599 72.8346 114.147 65.5396C115.841 60.6836 115.605 56.1522 113.122 51.6778C111.806 49.3003 110.583 46.8393 109.579 44.2907C108.059 40.4305 109.189 36.0833 112.151 33.403C113.951 31.7756 115.069 32.1002 115.581 34.5436C116.056 36.8202 116.296 39.1539 116.764 41.435C116.906 42.1325 117.475 42.7291 117.849 43.3739C118.296 42.7247 118.974 42.1456 119.157 41.4174C122.237 29.205 129.959 21.4012 140.122 16.1767C145.624 13.3473 151.464 13.4306 156.604 17.2733C163.403 22.3531 167.654 29.4595 168.942 38.3556C169.739 43.8564 166.796 57.4726 163.667 62.7366C161.481 66.4126 159.075 69.9921 156.385 73.2469C154.434 75.607 152 77.6029 149.53 79.3444C146.039 81.7965 142.255 81.9808 138.574 79.6295C136.595 78.3706 134.603 77.0897 132.795 75.5763C128.626 72.0801 124.615 68.3602 120.437 64.8772C117.836 62.7058 116.971 62.9866 115.996 66.3599C113.996 73.2952 111.107 79.5769 106.356 84.8979C103.357 88.2581 104.097 91.0787 107.986 93.2457C108.827 93.715 109.697 94.1318 110.587 94.4783C116.662 96.8471 122.904 98.3254 129.365 98.9001C135.778 99.4703 141.032 97.492 144.905 91.82C146.77 92.8202 148.213 94.0046 149.794 94.3028C153.089 94.9214 155.552 96.5927 157.421 99.5142C158.072 100.532 158.888 101.431 159.669 102.344C164.171 107.594 167.317 113.569 168.84 120.623C169.897 125.514 171.486 130.282 172.969 135.055C173.229 135.888 174.144 136.489 174.753 137.195C175.216 136.371 175.972 135.594 176.098 134.708C176.757 130.089 177.285 125.444 177.801 120.803C178.658 113.038 179.492 105.269 180.292 97.4963C180.503 95.4434 181.178 94.5222 183.352 94.7503C190.764 95.518 198.205 95.961 205.621 96.6936C231.511 99.2554 257.398 101.848 283.28 104.524C288.124 105.024 292.927 105.941 297.746 106.704C299.331 106.954 300.014 107.893 299.856 109.744C299.494 114.038 299.344 118.35 299.014 122.649C297.279 145.241 295.044 167.766 291.586 190.134C290.932 194.354 290.033 198.53 289.265 202.618C284.974 202.969 284.889 202.894 284.767 198.793C284.751 198.209 284.71 197.622 284.742 197.038C285.328 187.339 285.681 177.614 286.571 167.946C288.197 150.272 290.151 132.638 291.952 114.982C292.293 111.639 292.26 111.542 289.18 111.091C278.988 109.599 268.8 108.024 258.58 106.765C235.441 103.914 212.282 101.225 189.131 98.4921C184.742 97.9745 184.592 97.992 183.962 102.703C181.592 120.425 179.268 138.152 177.045 155.896C175.448 168.643 174.026 181.417 172.538 194.178C172.392 195.433 172.071 196.463 170.572 196.529C170.759 192.704 171.043 188.927 171.1 185.142C171.201 178.092 172.197 178.948 165.488 178.202C151.614 176.658 137.696 175.548 123.859 173.719C114.549 172.486 105.34 170.328 96.0913 168.582C96.0181 166.915 96.0954 165.516 95.8718 164.173C94.4577 155.764 92.9785 147.373 91.5155 138.976C91.2879 137.674 90.8369 136.415 90.7637 135.081C90.6743 133.401 91.7309 131.927 91.8975 130.278C92.0966 128.277 92.247 126.273 92.3567 124.268C92.5802 120.298 92.6574 116.319 92.7265 112.341C92.7509 110.88 92.5355 109.428 92.2511 108.002C92.056 107.024 91.9625 105.629 91.1254 105.019C90.5849 104.625 89.8372 104.581 89.2601 104.914C88.5287 105.335 88.1589 106.235 87.8988 107.086C87.0251 109.932 86.7812 112.964 86.8666 115.96C87.0332 121.768 88.1182 127.501 88.9879 133.217C85.7694 132.914 82.8354 132.502 79.8891 132.405C76.3212 132.287 72.6882 131.997 69.1934 132.576C64.6501 133.331 62.5044 136.586 62.537 141.569C62.5491 143.53 62.7198 145.53 63.1018 147.443C66.4991 164.393 73.0174 179.992 80.7669 195.073C82.5793 198.6 85.1801 200.802 88.8091 201.412C93.8197 202.254 98.8384 203.197 103.886 203.552C113.017 204.202 122.107 204.846 130.877 208.04C134.786 209.461 138.797 210.558 142.78 211.733C152.581 214.624 162.375 217.418 172.705 217.085C187.798 216.598 202.903 216.519 217.995 215.997C234.645 215.418 251.286 214.585 267.923 213.742C273.193 213.475 278.444 212.751 283.71 212.369C286.6 212.159 288.343 210.654 289.107 207.693C289.253 207.132 289.509 206.592 289.595 206.026C289.818 204.522 290.554 204.123 291.968 204.123C308.292 204.149 324.616 204.087 340.936 204.048C341.545 204.048 342.171 204.123 342.757 203.987C343.069 203.912 343.309 203.465 344 202.745C325.847 202.736 308.284 202.736 290.7 202.736ZM158.25 95.1012C155.881 91.7235 153.512 88.3502 151.147 84.9725C151.407 84.7356 151.667 84.4943 151.927 84.2574C154.219 87.7229 156.511 91.1927 158.803 94.6582C158.616 94.8073 158.433 94.9565 158.25 95.1012ZM150.769 4.44241C149.436 8.14474 149.44 8.23686 145.742 8.18861C137.346 8.07894 129.349 9.61865 121.847 13.9439C116.394 17.0891 112.245 21.4801 109.575 27.4767C106.677 33.9777 104.755 40.8077 104.032 47.9887C103.495 53.3228 104.394 58.4289 106.096 63.4603C106.795 65.5265 107.043 67.8338 107.137 70.0491C107.181 71.1809 106.657 72.5539 105.978 73.4575C105.227 74.4577 104.007 75.0455 102.992 75.8088C102.463 74.7735 101.659 73.7997 101.447 72.6898C99.6471 63.2849 100.322 53.915 102.252 44.6416C105.397 29.5516 112.228 16.9268 124.143 7.94295C132.417 1.70514 141.422 -0.54082 151.472 2.94656C151.183 3.55631 150.936 3.98181 150.769 4.44241ZM168.962 53.4193C171.348 45.7164 172.799 37.8599 171.543 29.727C170.121 20.5414 164.992 14.501 157.084 11.2636C155.113 10.4565 154.089 9.32913 153.601 7.27618C153.305 6.02599 152.854 4.81966 152.321 3.10887C162.038 6.85945 168.588 13.5973 172.457 23.226C177.074 34.7234 177.866 46.7955 176.289 59.1C175.948 61.7803 175.216 62.1487 172.859 61.2846C172.668 61.2144 172.482 61.1223 172.295 61.0389C167.398 58.9465 167.317 58.7272 168.962 53.4193ZM145.015 91.6665C145.063 91.6226 145.128 91.6182 145.015 91.6665V91.6665ZM166.024 65.8511C169.93 64.1578 173.737 64.6842 177.484 66.3731C179.638 67.3425 179.825 67.6408 180.016 69.6718C179.605 69.5095 179.24 69.4262 178.931 69.2332C176.659 67.8207 174.278 67.4434 171.697 68.0619C169.503 68.5883 167.65 67.6671 166.024 65.8511ZM179.869 93.0746C176.505 93.4343 176.253 93.68 175.631 97.1279C175.387 98.4877 175.428 100.001 174.859 101.177C174.152 102.637 173.185 104.274 171.917 105.033C168.686 106.963 167.325 106.419 165.207 103.159C164.602 102.225 164.029 101.264 163.322 100.128C167.219 98.729 170.279 96.1804 171.921 92.5877C173.778 88.5257 174.948 84.0293 175.972 79.6032C177.46 73.1636 176.858 72.6021 170.759 73.5496C168.747 73.8611 166.878 73.5979 164.61 71.9836C166.593 71.2159 168.137 70.4702 169.751 70.0228C174.318 68.7638 180.008 72.8258 180.759 77.8178C181.536 82.9371 180.8 87.9598 179.869 93.0746ZM90.1582 106.094C92.3079 114.547 91.5155 122.974 90.333 131.401C89.2723 122.961 85.9929 114.538 90.1582 106.094ZM282.621 211.062C273.376 211.847 264.131 212.799 254.87 213.142C228.886 214.102 202.882 214.572 176.903 215.677C164.342 216.212 152.455 213.251 140.561 209.645C133.336 207.452 126.114 205.096 118.751 203.636C112.659 202.429 106.348 202.565 100.159 201.846C96.0019 201.359 91.8731 200.504 87.7606 199.639C85.5621 199.179 83.835 197.797 82.6728 195.621C74.4397 180.233 67.706 164.187 64.3006 146.693C63.9552 144.92 63.8333 143.06 63.8617 141.244C63.9268 137.125 65.727 134.564 69.5022 133.888C72.2696 133.392 75.1589 133.419 77.9792 133.559C81.6853 133.743 85.3752 134.27 89.382 134.682C91.1823 145.561 94.3642 156.453 94.7665 167.626C91.5846 167.626 88.7644 167.564 85.9522 167.643C83.5303 167.713 81.2017 168.323 79.4909 170.319C78.922 170.986 78.3205 172.271 78.5644 172.912C78.8163 173.574 80.0639 174.135 80.8848 174.153C85.6353 174.249 90.1013 172.868 94.4292 170.824C95.3314 170.398 96.4408 170.016 97.3673 170.179C107.246 171.929 117.068 174.153 126.988 175.539C138.058 177.083 149.221 177.899 160.339 179.04C162.968 179.307 165.589 179.658 168.219 179.891C169.373 179.992 169.917 180.43 169.852 181.777C169.621 186.374 169.434 190.971 169.275 195.573C169.231 196.92 168.686 197.521 167.438 197.622C159.071 198.297 150.708 199.025 142.341 199.701C138.155 200.039 133.961 200.293 129.776 200.626C128.902 200.697 128 200.828 127.191 201.157C126.553 201.42 126.037 202.03 125.468 202.486C125.944 203.122 126.309 204.123 126.911 204.329C130.125 205.43 133.348 206.676 136.66 207.237C145.145 208.676 153.662 209.926 162.196 210.957C166.138 211.435 167.329 210.33 168.593 206.211C169.226 204.14 169.495 201.938 170.076 199.846C170.271 199.135 170.799 198.266 171.38 197.994C172.949 197.275 173.603 196.139 173.814 194.34C176.342 172.732 178.862 151.127 181.519 129.536C182.661 120.267 184.149 111.051 185.408 101.795C185.648 100.041 186.282 99.5317 187.928 99.7291C210.669 102.466 233.426 105.072 256.162 107.862C266.85 109.174 277.509 110.814 288.176 112.314C288.977 112.428 289.761 112.639 290.846 112.863C290.355 117.592 289.851 122.079 289.428 126.571C287.49 147.368 285.535 168.161 283.694 188.971C283.373 192.594 283.483 196.279 283.564 199.929C283.649 203.697 283.978 203.951 287.441 204.105C287.774 204.118 288.107 204.158 288.432 204.184C288.351 208.799 286.839 210.703 282.621 211.062ZM93.1938 169.608C88.9879 171.775 84.6072 172.964 79.8932 172.394C83.6644 167.608 88.5043 169.069 93.1938 169.608ZM168.755 199.28C168.422 202.228 167.881 205.39 166.301 208.246C165.362 209.944 163.753 209.781 162.294 209.61C156.312 208.922 150.31 208.325 144.369 207.334C139.5 206.522 134.705 205.215 129.889 204.074C128.991 203.864 128.142 203.408 127.268 203.065C127.305 202.767 127.341 202.469 127.374 202.171C141.101 201.21 154.825 200.254 168.755 199.28Z" fill="#8D8D99"/>
</svg>
