<svg width="32" height="32" viewBox="0 0 32 32" fill="none" xmlns="http://www.w3.org/2000/svg">
<path d="M20 4.66663H28" stroke="#C1DEFF" stroke-width="2" stroke-linecap="round" stroke-linejoin="round"/>
<path d="M20 12.6666H28" stroke="#C1DEFF" stroke-width="2" stroke-linecap="round" stroke-linejoin="round"/>
<path d="M4 20.6666H28" stroke="#C1DEFF" stroke-width="2" stroke-linecap="round" stroke-linejoin="round"/>
<path d="M4 28.6666H28" stroke="#C1DEFF" stroke-width="2" stroke-linecap="round" stroke-linejoin="round"/>
<path d="M4.78105 13.219C5.56209 14 6.81917 14 9.33333 14C11.8475 14 13.1046 14 13.8856 13.219C14.6667 12.4379 14.6667 11.1809 14.6667 8.66671C14.6667 6.15255 14.6667 4.89547 13.8856 4.11443C13.1046 3.33337 11.8475 3.33337 9.33333 3.33337C6.81917 3.33337 5.56209 3.33337 4.78105 4.11443C4 4.89547 4 6.15255 4 8.66671C4 11.1809 4 12.4379 4.78105 13.219Z" stroke="#0077FF" stroke-width="2" stroke-linecap="round" stroke-linejoin="round"/>
</svg>
