<svg width="29" height="26" viewBox="0 0 29 26" fill="none" xmlns="http://www.w3.org/2000/svg">
<path d="M21.0693 10.5093L20.1219 10.1893L20.1219 10.1894L21.0693 10.5093ZM22.3348 9.43851L21.9203 8.52846L21.9203 8.52847L22.3348 9.43851ZM23.5291 9.0056L23.4485 8.00885L23.4484 8.00886L23.5291 9.0056ZM24.4907 9.21239L24.0013 10.0844L24.0013 10.0845L24.4907 9.21239ZM25.4105 10.164L26.1825 9.52839L26.1825 9.52834L25.4105 10.164ZM27.5273 13.2981L26.5627 13.5617L26.5627 13.5617L27.5273 13.2981ZM27.5273 15.3685L26.5627 15.105L26.5627 15.105L27.5273 15.3685ZM25.3464 18.5805L24.5744 17.9449L24.5744 17.9449L25.3464 18.5805ZM24.4907 19.4543L24.98 20.3263L24.9801 20.3263L24.4907 19.4543ZM23.5291 19.6611L23.4484 20.6578L23.4485 20.6578L23.5291 19.6611ZM22.3348 19.2281L22.7494 18.3181L22.7494 18.3181L22.3348 19.2281ZM21.0693 18.1573L20.1219 18.4773L20.1219 18.4774L21.0693 18.1573ZM7.18121 9.89627L7.83744 9.1417H7.83744L7.18121 9.89627ZM6.33188 9.43873L5.91736 10.3488L5.91738 10.3488L6.33188 9.43873ZM5.13755 9.00581L5.21817 8.00907L5.21815 8.00907L5.13755 9.00581ZM3.25617 10.1642L4.02818 10.7999L4.02819 10.7998L3.25617 10.1642ZM1.13928 13.2983L0.174629 13.0347L0.17462 13.0348L1.13928 13.2983ZM1.13928 15.3688L2.10393 15.1053L2.10393 15.1053L1.13928 15.3688ZM3.32028 18.5808L2.54824 19.2164L2.54828 19.2164L3.32028 18.5808ZM5.13755 19.6613L5.21808 20.6581L5.21822 20.6581L5.13755 19.6613ZM6.33188 19.2284L6.74628 20.1385L6.74647 20.1384L6.33188 19.2284ZM7.18121 18.7708L6.525 18.0162L6.52499 18.0162L7.18121 18.7708ZM4 9V10H6V9H4ZM22.6667 9V10H24.6667V9H22.6667ZM24.6667 19.6667C24.6667 19.1144 24.219 18.6667 23.6667 18.6667C23.1144 18.6667 22.6667 19.1144 22.6667 19.6667H24.6667ZM15.6667 24C15.1144 24 14.6667 24.4477 14.6667 25C14.6667 25.5523 15.1144 26 15.6667 26V24ZM22 11.406C22 11.1636 22.0004 11.0264 22.0068 10.9232C22.0124 10.8319 22.0204 10.8184 22.0168 10.8293L20.1219 10.1894C19.9875 10.5874 20 11.0153 20 11.406H22ZM22.0167 10.8294C22.0366 10.7706 22.0675 10.7213 22.1649 10.6508C22.2917 10.5588 22.4563 10.482 22.7493 10.3485L21.9203 8.52847C21.4772 8.73028 20.4851 9.11418 20.1219 10.1893L22.0167 10.8294ZM22.7493 10.3486C23.4203 10.0429 23.5302 10.0088 23.6097 10.0023L23.4484 8.00886C22.9348 8.0504 22.4463 8.28886 21.9203 8.52846L22.7493 10.3486ZM23.6097 10.0023C23.7531 9.99075 23.8912 10.0227 24.0013 10.0844L24.9801 8.34033C24.5147 8.07916 23.9784 7.966 23.4485 8.00885L23.6097 10.0023ZM24.0013 10.0845C24.0481 10.1108 24.1222 10.1692 24.2382 10.3021C24.3892 10.4751 24.4372 10.5551 24.6386 10.7997L26.1825 9.52834C26.1115 9.44213 25.8903 9.1534 25.7448 8.9868C25.5644 8.78009 25.3146 8.52809 24.98 8.34032L24.0013 10.0845ZM24.6385 10.7997C25.277 11.575 25.7203 12.1145 26.0368 12.5639C26.3463 13.0034 26.4903 13.2968 26.5627 13.5617L28.492 13.0346C28.3342 12.457 28.0488 11.9473 27.6719 11.4122C27.302 10.8871 26.802 10.2807 26.1825 9.52839L24.6385 10.7997ZM26.5627 13.5617C26.7013 14.0689 26.7013 14.5978 26.5627 15.105L28.492 15.6321C28.7249 14.7798 28.7249 13.8868 28.492 13.0346L26.5627 13.5617ZM26.5627 15.105C26.4445 15.5377 26.1842 15.9819 25.8108 16.4706C25.4097 16.9956 25.0305 17.3909 24.5744 17.9449L26.1184 19.2162C26.4472 18.8168 26.9907 18.2205 27.4 17.6849C27.8368 17.1132 28.2746 16.428 28.492 15.632L26.5627 15.105ZM24.5744 17.9449C24.1199 18.4969 24.0518 18.5538 24.0012 18.5822L24.9801 20.3263C25.4364 20.0702 25.77 19.6393 26.1184 19.2162L24.5744 17.9449ZM24.0013 18.5822C23.8912 18.644 23.7531 18.6759 23.6096 18.6643L23.4485 20.6578C23.9784 20.7006 24.5147 20.5875 24.98 20.3263L24.0013 18.5822ZM23.6097 18.6643C23.5302 18.6579 23.4202 18.6237 22.7494 18.3181L21.9202 20.1382C22.4464 20.3779 22.9348 20.6162 23.4484 20.6578L23.6097 18.6643ZM22.7494 18.3181C22.4562 18.1846 22.2917 18.1078 22.1648 18.0159C22.0675 17.9453 22.0366 17.8961 22.0167 17.8373L20.1219 18.4774C20.4851 19.5526 21.4773 19.9364 21.9202 20.1382L22.7494 18.3181ZM22.0168 17.8374C22.0204 17.8483 22.0124 17.8347 22.0068 17.7435C22.0004 17.6403 22 17.503 22 17.2607H20C20 17.6514 19.9875 18.0793 20.1219 18.4773L22.0168 17.8374ZM22 17.2607V11.406H20V17.2607H22ZM8.66667 11.4061C8.66667 10.8616 8.68717 9.88068 7.83744 9.1417L6.52499 10.6508C6.58469 10.7028 6.60911 10.7457 6.62905 10.8264C6.65844 10.9454 6.66667 11.1035 6.66667 11.4061H8.66667ZM7.83744 9.1417C7.53066 8.87491 7.13984 8.7079 6.74638 8.52869L5.91738 10.3488C6.42882 10.5817 6.49049 10.6208 6.52499 10.6508L7.83744 9.1417ZM6.7464 8.52869C6.22029 8.28905 5.73176 8.05061 5.21817 8.00907L5.05692 10.0026C5.1364 10.009 5.24641 10.0432 5.91736 10.3488L6.7464 8.52869ZM5.21815 8.00907C3.7269 7.88847 2.92321 8.99536 2.48416 9.52864L4.02819 10.7998C4.30933 10.4584 4.47653 10.2584 4.65468 10.1251C4.78623 10.0267 4.89167 9.98919 5.05694 10.0026L5.21815 8.00907ZM2.48416 9.52863C1.86478 10.2809 1.36471 10.8873 0.994812 11.4124C0.617934 11.9474 0.332428 12.4571 0.174629 13.0347L2.10393 13.5618C2.17627 13.297 2.32029 13.0036 2.62986 12.5642C2.94641 12.1148 3.38973 11.5753 4.02818 10.7999L2.48416 9.52863ZM0.17462 13.0348C-0.0582021 13.8871 -0.0582157 14.7801 0.174633 15.6323L2.10393 15.1053C1.96536 14.5981 1.96535 14.0691 2.10394 13.5618L0.17462 13.0348ZM0.174628 15.6323C0.392089 16.4283 0.829865 17.1135 1.26673 17.6852C1.67582 18.2205 2.2196 18.8172 2.54824 19.2164L4.09232 17.9452C3.63604 17.391 3.25715 16.9959 2.85588 16.4708C2.48239 15.9821 2.22212 15.5379 2.10393 15.1053L0.174628 15.6323ZM2.54828 19.2164C3.00147 19.7668 3.7861 20.7738 5.21808 20.6581L5.05701 18.6646C4.89534 18.6776 4.79463 18.6421 4.67538 18.5573C4.51436 18.4427 4.35225 18.2609 4.09228 17.9452L2.54828 19.2164ZM5.21822 20.6581C5.73177 20.6165 6.22045 20.3779 6.74628 20.1385L5.91748 18.3183C5.24624 18.6239 5.13639 18.6582 5.05687 18.6646L5.21822 20.6581ZM6.74647 20.1384C7.13992 19.9592 7.5307 19.7921 7.83744 19.5254L6.52499 18.0162C6.49045 18.0463 6.42875 18.0854 5.91729 18.3184L6.74647 20.1384ZM7.83742 19.5254C8.68716 18.7864 8.66667 17.8057 8.66667 17.2609H6.66667C6.66667 17.5637 6.65843 17.7218 6.62905 17.8407C6.60913 17.9214 6.58472 17.9643 6.525 18.0162L7.83742 19.5254ZM8.66667 17.2609V11.4061H6.66667V17.2609H8.66667ZM6 9C6 5.27307 9.58079 2 14.3333 2V0C8.77657 0 4 3.89037 4 9H6ZM14.3333 2C19.0859 2 22.6667 5.27307 22.6667 9H24.6667C24.6667 3.89037 19.8901 0 14.3333 0V2ZM22.6667 19.6667V20.7333H24.6667V19.6667H22.6667ZM22.6667 20.7333C22.6667 22.3407 20.9463 24 18.3333 24V26C21.6113 26 24.6667 23.8387 24.6667 20.7333H22.6667ZM18.3333 24H15.6667V26H18.3333V24Z" fill="#0077FF"/>
</svg>
