<svg width="14" height="12" viewBox="0 0 14 12" fill="none" xmlns="http://www.w3.org/2000/svg">
<path d="M2.17934 9.1214L2.17924 9.12136C2.08437 9.08459 1.99977 9.03298 1.93004 8.96984C1.86032 8.90671 1.80695 8.8334 1.77242 8.75436C1.73791 8.67537 1.72276 8.59192 1.72753 8.50863C1.73231 8.42534 1.75695 8.34324 1.8005 8.267L1.80051 8.26699L6.28051 0.421026L6.28052 0.421006C6.34343 0.310707 6.44392 0.21613 6.57149 0.149379C6.69907 0.0826231 6.84772 0.046875 7 0.046875C7.15228 0.046875 7.30093 0.0826232 7.42851 0.149379C7.55608 0.21613 7.65657 0.310707 7.71948 0.421006L7.71949 0.421026L12.1995 8.26699C12.2871 8.42052 12.297 8.59537 12.2275 8.75434C12.1578 8.91397 12.0126 9.04697 11.8208 9.12136C11.6289 9.19575 11.4085 9.20437 11.2087 9.14508C11.0089 9.08578 10.8485 8.96427 10.7605 8.81011L9.66991 6.89996L9.65641 6.87633H9.6292H4.3708H4.34356L4.33007 6.89999L3.24157 8.81014L3.24156 8.81016C3.19802 8.88667 3.13622 8.95597 3.0592 9.01377C2.98217 9.07157 2.89161 9.1166 2.79257 9.14593C2.69353 9.17527 2.58825 9.18824 2.48285 9.18402C2.37744 9.17979 2.27429 9.15845 2.17934 9.1214ZM7.04071 2.29507L7 2.22378L6.95929 2.29507L5.12039 5.51537L5.08035 5.58549H5.1611H8.8389H8.91965L8.87961 5.51537L7.04071 2.29507ZM13.9531 11.3077C13.9531 11.4756 13.8723 11.639 13.7242 11.7611C13.5758 11.8833 13.373 11.9531 13.16 11.9531H0.84C0.627033 11.9531 0.424193 11.8833 0.275843 11.7611C0.12775 11.639 0.046875 11.4756 0.046875 11.3077C0.046875 11.1398 0.12775 10.9764 0.275843 10.8544C0.424193 10.7321 0.627033 10.6623 0.84 10.6623H13.16C13.373 10.6623 13.5758 10.7321 13.7242 10.8544C13.8723 10.9764 13.9531 11.1398 13.9531 11.3077Z" fill="#94A3B8" stroke="#94A3B8" stroke-width="0.09375"/>
</svg>
