<svg width="12" height="9" viewBox="0 0 12 9" fill="none" xmlns="http://www.w3.org/2000/svg">
<path d="M2.92688 0.9C2.92688 0.734423 2.99701 0.574964 3.12294 0.4569C3.24898 0.33874 3.42054 0.271875 3.6 0.271875H11.28C11.4595 0.271875 11.631 0.33874 11.7571 0.4569C11.883 0.574964 11.9531 0.734423 11.9531 0.9C11.9531 1.06558 11.883 1.22504 11.7571 1.3431C11.631 1.46126 11.4595 1.52812 11.28 1.52812H3.6C3.42054 1.52812 3.24898 1.46126 3.12294 1.3431C2.99701 1.22504 2.92688 1.06558 2.92688 0.9ZM3.6 3.87187H11.28C11.4595 3.87187 11.631 3.93874 11.7571 4.0569C11.883 4.17496 11.9531 4.33442 11.9531 4.5C11.9531 4.66558 11.883 4.82504 11.7571 4.9431C11.631 5.06126 11.4595 5.12812 11.28 5.12812H3.6C3.42054 5.12812 3.24898 5.06126 3.12294 4.9431C2.99701 4.82504 2.92688 4.66558 2.92688 4.5C2.92688 4.33442 2.99701 4.17496 3.12294 4.0569C3.24898 3.93874 3.42054 3.87187 3.6 3.87187ZM3.6 7.47187H11.28C11.4595 7.47187 11.631 7.53874 11.7571 7.6569C11.883 7.77496 11.9531 7.93442 11.9531 8.1C11.9531 8.26558 11.883 8.42503 11.7571 8.5431C11.631 8.66126 11.4595 8.72812 11.28 8.72812H3.6C3.42054 8.72812 3.24898 8.66126 3.12294 8.5431C2.99701 8.42503 2.92688 8.26558 2.92688 8.1C2.92688 7.93442 2.99701 7.77496 3.12294 7.6569C3.24898 7.53874 3.42054 7.47187 3.6 7.47187ZM0.451537 3.7914C0.601799 3.69728 0.778753 3.64687 0.96 3.64687C1.20312 3.64687 1.43572 3.73745 1.60676 3.8978C1.77771 4.05806 1.87313 4.27475 1.87313 4.5C1.87313 4.66803 1.81999 4.83257 1.72004 4.97281C1.62006 5.11309 1.47762 5.22286 1.31041 5.2878C1.14318 5.35273 0.959013 5.36976 0.781307 5.33663C0.603609 5.30349 0.440769 5.22176 0.313238 5.1022C0.185738 4.98267 0.0992886 4.83075 0.0643008 4.66585C0.0293191 4.50098 0.0472405 4.33005 0.115953 4.17453C0.184684 4.01897 0.301301 3.88551 0.451537 3.7914ZM0.451537 0.191402C0.601799 0.0972751 0.778753 0.046875 0.96 0.046875C1.20312 0.046875 1.43572 0.137445 1.60676 0.297801C1.77771 0.458061 1.87313 0.674749 1.87313 0.9C1.87313 1.06803 1.81999 1.23257 1.72004 1.37281C1.62006 1.51309 1.47762 1.62286 1.31041 1.6878C1.14318 1.75273 0.959013 1.76976 0.781307 1.73663C0.603609 1.70349 0.440769 1.62176 0.313238 1.5022C0.185738 1.38267 0.0992886 1.23075 0.0643008 1.06585C0.0293191 0.900979 0.0472405 0.730046 0.115953 0.574529C0.184684 0.418967 0.301301 0.285513 0.451537 0.191402ZM0.451537 7.3914C0.601799 7.29727 0.778753 7.24687 0.96 7.24687C1.20312 7.24687 1.43572 7.33744 1.60676 7.4978C1.77771 7.65806 1.87313 7.87475 1.87313 8.1C1.87313 8.26803 1.81999 8.43257 1.72004 8.57281C1.62006 8.71309 1.47762 8.82286 1.31041 8.8878C1.14318 8.95273 0.959013 8.96976 0.781307 8.93663C0.603609 8.90349 0.440769 8.82176 0.313238 8.7022C0.185738 8.58267 0.0992886 8.43075 0.0643008 8.26585C0.0293191 8.10098 0.0472405 7.93005 0.115953 7.77453C0.184684 7.61897 0.301301 7.48551 0.451537 7.3914Z" fill="#94A3B8" stroke="#94A3B8" stroke-width="0.09375"/>
</svg>
