<svg width="20" height="20" viewBox="0 0 20 20" fill="none" xmlns="http://www.w3.org/2000/svg">
<g clip-path="url(#clip0_1_1524)">
<path d="M16.9377 5.57861L16.8262 5.05135C16.7257 4.57792 16.4986 4.13062 15.981 3.95962C15.8146 3.90499 15.6263 3.88203 15.4997 3.76882C15.3713 3.65561 15.3341 3.47907 15.3046 3.31598C15.2497 3.01673 15.199 2.71747 15.1425 2.41901C15.0943 2.16171 15.0563 1.87275 14.9314 1.63762C14.7667 1.32094 14.4273 1.13569 14.0904 1.01377C13.9174 0.95315 13.7409 0.901871 13.5618 0.860184C12.7174 0.651972 11.8308 0.575179 10.9636 0.530845C9.92223 0.477164 8.87813 0.493567 7.8393 0.579929C7.06668 0.645638 6.25184 0.725598 5.51722 0.97577C5.2487 1.0676 4.97174 1.17844 4.7674 1.3724C4.51661 1.61149 4.43555 1.982 4.61794 2.27967C4.74797 2.49105 4.96836 2.64068 5.20226 2.73884C5.50624 2.8671 5.82458 2.96368 6.15051 3.0286C7.05824 3.21702 7.99889 3.29065 8.92604 3.32152C9.95451 3.36111 10.9838 3.32944 12.0081 3.2281C12.2606 3.20198 12.513 3.17031 12.7647 3.13389C13.0619 3.09114 13.2527 2.72776 13.1649 2.47363C13.0602 2.17042 12.779 2.05325 12.4607 2.09917C12.0672 2.15775 11.6501 2.18467 11.2937 2.21475C10.2999 2.27809 9.30264 2.27967 8.30794 2.2195C7.98156 2.19925 7.65579 2.17101 7.33098 2.13479C7.25836 2.12687 7.17899 2.115 7.11312 2.10629C6.90794 2.07779 6.70444 2.04296 6.50178 2.00337C6.40805 1.982 6.40805 1.85691 6.50178 1.83554H6.506C6.7399 1.78804 6.97633 1.75003 7.21361 1.71916H7.21529C7.32591 1.71203 7.43737 1.69383 7.54799 1.68116C8.50884 1.58766 9.4754 1.55591 10.4409 1.58616C11.01 1.6012 11.5783 1.6392 12.144 1.70016L12.3365 1.7247C12.562 1.75637 12.7866 1.79437 13.0104 1.83949C13.3414 1.90679 13.7661 1.92895 13.9139 2.26859C13.9603 2.37705 13.9814 2.49659 14.0076 2.6098L14.277 3.78466C14.2827 3.80985 14.2828 3.83587 14.2773 3.86111C14.2718 3.88634 14.2609 3.91025 14.2451 3.93134C14.2294 3.95244 14.2091 3.97026 14.1857 3.9837C14.1623 3.99715 14.1361 4.00593 14.1089 4.00949H14.1064C14.0752 4.01424 14.0431 4.01741 14.0118 4.02137C12.6836 4.18025 11.3458 4.25826 10.0069 4.25492C8.68016 4.25363 7.35488 4.17325 6.03905 4.01424C5.92084 4.00079 5.79165 3.98099 5.68694 3.96674C5.41167 3.92874 5.13893 3.88124 4.86535 3.83928C4.5335 3.78782 4.21685 3.81395 3.91709 3.96674C3.67222 4.09341 3.47209 4.28658 3.34712 4.52171C3.21709 4.77188 3.17909 5.04422 3.12167 5.31339C3.06341 5.58257 2.97306 5.87311 3.00768 6.14941C3.08114 6.74555 3.52529 7.23005 4.1645 7.33851C7.32546 7.86741 10.5511 7.96765 13.7425 7.63619C13.8031 7.62972 13.8645 7.63609 13.9222 7.65483C13.9798 7.67357 14.0323 7.7042 14.0756 7.74447C14.119 7.78473 14.1521 7.83361 14.1726 7.88748C14.1932 7.94136 14.2005 7.99887 14.1942 8.05578L14.1343 8.60758L13.2747 16.4508C13.2401 16.7754 13.235 17.1094 13.1691 17.4301C13.0661 17.9344 12.7022 18.2439 12.171 18.3571C11.6838 18.4608 11.1873 18.5155 10.6883 18.5194C10.1344 18.5226 9.58213 18.4996 9.02821 18.502C8.43798 18.5052 7.71433 18.4545 7.2592 18.0428C6.85812 17.6803 6.80323 17.1134 6.74835 16.6234L6.13109 11.0713L5.8592 8.62183C5.82795 8.34395 5.6177 8.07161 5.2867 8.08507C5.00298 8.09695 4.68042 8.32258 4.7142 8.62262L4.90672 10.3524L5.70805 17.5662C5.83218 18.6303 6.69937 19.2034 7.77344 19.365C8.39998 19.46 9.04257 19.479 9.67924 19.4885C10.4949 19.5011 11.3191 19.5304 12.1212 19.3919C13.3101 19.1876 14.2027 18.4434 14.3302 17.2884C14.6173 14.6505 14.9069 12.0134 15.1948 9.37551L15.3764 7.72327C15.3853 7.64134 15.4222 7.56429 15.4815 7.50354C15.5408 7.44279 15.6194 7.40158 15.7057 7.38602C16.0451 7.32426 16.3702 7.21818 16.6126 6.97592C16.9968 6.58958 17.0736 6.08687 16.9377 5.57861ZM15.6896 6.18979C15.5672 6.29825 15.3831 6.34891 15.2016 6.37425C13.1615 6.65846 11.0928 6.80175 9.03074 6.73842C7.55474 6.69092 6.09478 6.53733 4.63398 6.34416C4.49043 6.32516 4.33591 6.30062 4.23712 6.20166C4.05135 6.01482 4.14339 5.63957 4.19152 5.41394C4.23543 5.2081 4.31987 4.9318 4.58247 4.90251C4.99116 4.85738 5.46571 5.01968 5.87102 5.07668C6.35823 5.14635 6.84714 5.20256 7.33773 5.24452C9.43183 5.42344 11.5614 5.39494 13.647 5.13368C14.027 5.08618 14.4062 5.03076 14.7828 4.96743C15.1197 4.91043 15.4921 4.80434 15.6947 5.13052C15.8349 5.35298 15.8535 5.65065 15.8315 5.90161C15.8248 6.01121 15.7746 6.11429 15.6896 6.18979ZM10.489 9.27734C9.76115 9.57027 8.93533 9.90119 7.86379 9.90119C7.41593 9.90017 6.97028 9.84238 6.53894 9.72939L7.27947 16.8577C7.33435 17.4752 7.8849 17.9502 8.54606 17.9502C8.54606 17.9502 9.59564 18.0017 9.94607 18.0017C10.3235 18.0017 11.4542 17.9502 11.4542 17.9502C12.1153 17.9502 12.665 17.4752 12.7199 16.8577L13.5136 8.98046C13.1555 8.85905 12.7781 8.79534 12.3973 8.79204C11.6999 8.79204 11.1384 9.01688 10.489 9.27734Z" fill="#8D9199"/>
</g>
<defs>
<clipPath id="clip0_1_1524">
<rect width="20" height="20" fill="white"/>
</clipPath>
</defs>
</svg>
