<svg width="32" height="32" viewBox="0 0 32 32" fill="none" xmlns="http://www.w3.org/2000/svg">
<path d="M18.8567 26L14.7237 14.2113C12.8046 8.7371 11.845 6 10.2853 6C8.72563 6 7.76605 8.7371 5.84686 14.2113L1.71387 26M5.2853 16H15.2853" stroke="#0077FF" stroke-width="2" stroke-linecap="round" stroke-linejoin="round"/>
<path d="M30.2413 18.7703V25.1989M30.2413 18.7703C30.3087 17.5945 30.3113 16.6987 30.1702 15.9676C29.8373 14.2442 28.0365 13.2056 26.2939 12.9943C24.626 12.7921 23.2875 13.2215 21.9332 15.1947M30.2413 18.7703H26.179C25.5549 18.7703 24.9255 18.8005 24.3242 18.9676C20.6489 19.9893 20.9183 25.1433 24.6043 25.7786C25.0137 25.8492 25.4317 25.8795 25.8463 25.8609C26.8143 25.8177 27.7075 25.35 28.474 24.7573C29.3717 24.0629 30.2413 23.0936 30.2413 21.6275V18.7703Z" stroke="#C1DEFF" stroke-width="2" stroke-linecap="round" stroke-linejoin="round"/>
</svg>
