<svg width="185" height="67" viewBox="0 0 185 67" fill="none" xmlns="http://www.w3.org/2000/svg">
<g filter="url(#filter0_d_1_1556)">
<path d="M91.0739 33.8228C89.47 33.8228 87.9807 33.5225 86.6059 32.9218C85.2312 32.298 84.0627 31.4548 83.1004 30.3921C82.138 29.3294 81.4278 28.105 80.9695 26.7189L84.4064 25.2635C85.025 26.8575 85.93 28.0819 87.1215 28.9367C88.3129 29.7915 89.6877 30.2189 91.2457 30.2189C92.1622 30.2189 92.9641 30.0803 93.6515 29.803C94.3389 29.5027 94.8658 29.0869 95.2324 28.5555C95.6219 28.0242 95.8167 27.412 95.8167 26.7189C95.8167 25.7717 95.5532 25.0209 95.0262 24.4665C94.4992 23.912 93.7202 23.4731 92.6892 23.1496L87.8776 21.6249C85.9529 21.0243 84.4866 20.1117 83.4784 18.8873C82.4703 17.6398 81.9662 16.1844 81.9662 14.521C81.9662 13.0656 82.3213 11.795 83.0316 10.7092C83.7419 9.60029 84.7157 8.73397 85.9529 8.11021C87.2131 7.48646 88.6451 7.17458 90.249 7.17458C91.7841 7.17458 93.1818 7.4518 94.442 8.00625C95.7021 8.5376 96.779 9.27686 97.6726 10.224C98.5891 11.1712 99.2536 12.2686 99.666 13.5161L96.2979 15.0062C95.7938 13.6432 95.0033 12.592 93.9264 11.8527C92.8725 11.1135 91.6467 10.7438 90.249 10.7438C89.4013 10.7438 88.6566 10.894 88.0151 11.1943C87.3735 11.4716 86.8694 11.8874 86.5028 12.4418C86.1592 12.9732 85.9873 13.5969 85.9873 14.3131C85.9873 15.1448 86.2508 15.884 86.7778 16.5309C87.3048 17.1778 88.1067 17.6629 89.1836 17.9863L93.6515 19.4071C95.6907 20.0309 97.2258 20.9318 98.2569 22.11C99.2879 23.2651 99.8034 24.709 99.8034 26.4417C99.8034 27.874 99.4254 29.1446 98.6693 30.2535C97.9361 31.3624 96.9165 32.2403 95.6105 32.8871C94.3045 33.5109 92.7923 33.8228 91.0739 33.8228Z" fill="#313B49"/>
<path d="M112.02 33.6149C110.073 33.6149 108.56 33.0604 107.483 31.9515C106.407 30.8426 105.868 29.2832 105.868 27.2734V18.1943H102.603V14.6596H103.119C103.989 14.6596 104.665 14.4055 105.146 13.8973C105.628 13.389 105.868 12.696 105.868 11.8181V10.3627H109.752V14.6596H113.979V18.1943H109.752V27.1001C109.752 27.7469 109.855 28.3014 110.061 28.7634C110.267 29.2024 110.6 29.5489 111.058 29.803C111.516 30.034 112.112 30.1496 112.845 30.1496C113.028 30.1496 113.234 30.138 113.464 30.1149C113.693 30.0918 113.91 30.0687 114.117 30.0456V33.4069C113.796 33.4531 113.441 33.4994 113.051 33.5456C112.662 33.5918 112.318 33.6149 112.02 33.6149Z" fill="#313B49"/>
<path d="M117.907 33.4069V14.6596H121.79V33.4069H117.907ZM117.907 12.0953V7.59042H121.79V12.0953H117.907Z" fill="#313B49"/>
<path d="M135.164 33.8228C133.308 33.8228 131.658 33.3954 130.214 32.5406C128.794 31.6627 127.66 30.4845 126.812 29.006C125.987 27.5275 125.575 25.8526 125.575 23.9813C125.575 22.1331 125.987 20.4698 126.812 18.9913C127.637 17.5127 128.771 16.3576 130.214 15.526C131.658 14.6712 133.308 14.2438 135.164 14.2438C136.424 14.2438 137.604 14.4748 138.703 14.9369C139.803 15.3758 140.754 15.988 141.556 16.7735C142.381 17.5589 142.988 18.4715 143.378 19.5111L139.975 21.1051C139.586 20.1348 138.956 19.3609 138.085 18.7834C137.237 18.1827 136.263 17.8824 135.164 17.8824C134.11 17.8824 133.159 18.148 132.311 18.6794C131.486 19.1876 130.833 19.9154 130.352 20.8625C129.871 21.7866 129.63 22.8378 129.63 24.016C129.63 25.1942 129.871 26.2569 130.352 27.204C130.833 28.1281 131.486 28.8558 132.311 29.3872C133.159 29.9185 134.11 30.1842 135.164 30.1842C136.286 30.1842 137.26 29.8954 138.085 29.3179C138.933 28.7172 139.563 27.9202 139.975 26.9268L143.378 28.5555C143.011 29.5489 142.415 30.4499 141.59 31.2585C140.789 32.0439 139.838 32.6677 138.738 33.1297C137.638 33.5918 136.447 33.8228 135.164 33.8228Z" fill="#313B49"/>
<path d="M147.173 33.4069V7.17458H151.057V24.7437L149.545 24.3625L158.859 14.6596H163.705L156.694 22.1794L164.014 33.4069H159.546L153.016 23.4615L155.319 23.1496L149.82 29.0407L151.057 26.4417V33.4069H147.173Z" fill="#313B49"/>
<path d="M175.308 33.8228C173.521 33.8228 171.883 33.3954 170.393 32.5406C168.927 31.6858 167.758 30.5192 166.888 29.0407C166.017 27.5621 165.582 25.8872 165.582 24.016C165.582 22.1216 166.017 20.4467 166.888 18.9913C167.758 17.5127 168.927 16.3576 170.393 15.526C171.86 14.6712 173.498 14.2438 175.308 14.2438C177.141 14.2438 178.779 14.6712 180.223 15.526C181.689 16.3576 182.846 17.5127 183.694 18.9913C184.565 20.4467 185 22.1216 185 24.016C185 25.9103 184.565 27.5968 183.694 29.0753C182.823 30.5538 181.655 31.7205 180.188 32.5753C178.722 33.4069 177.095 33.8228 175.308 33.8228ZM175.308 30.1842C176.408 30.1842 177.382 29.9185 178.229 29.3872C179.077 28.8558 179.742 28.1281 180.223 27.204C180.727 26.2569 180.979 25.1942 180.979 24.016C180.979 22.8378 180.727 21.7866 180.223 20.8625C179.742 19.9385 179.077 19.2107 178.229 18.6794C177.382 18.148 176.408 17.8824 175.308 17.8824C174.231 17.8824 173.257 18.148 172.387 18.6794C171.539 19.2107 170.863 19.9385 170.359 20.8625C169.878 21.7866 169.637 22.8378 169.637 24.016C169.637 25.1942 169.878 26.2569 170.359 27.204C170.863 28.1281 171.539 28.8558 172.387 29.3872C173.257 29.9185 174.231 30.1842 175.308 30.1842Z" fill="#313B49"/>
</g>
<g filter="url(#filter1_d_1_1556)">
<path d="M80.9695 54.9182V40.6415H85.8949C86.8763 40.6415 87.6857 40.8135 88.3232 41.1574C88.9606 41.4966 89.4353 41.9544 89.7471 42.5307C90.059 43.1023 90.2149 43.7367 90.2149 44.4338C90.2149 45.0472 90.1071 45.5538 89.8916 45.9535C89.6806 46.3531 89.4009 46.6692 89.0523 46.9015C88.7084 47.1339 88.3346 47.3058 87.9311 47.4174V47.5568C88.3622 47.5847 88.7955 47.738 89.2312 48.0169C89.6669 48.2957 90.0315 48.6954 90.325 49.2159C90.6185 49.7364 90.7652 50.3731 90.7652 51.126C90.7652 51.8417 90.6047 52.4853 90.2837 53.0569C89.9627 53.6286 89.4559 54.0817 88.7634 54.4163C88.0709 54.7509 87.1698 54.9182 86.06 54.9182H80.9695ZM82.6755 53.3846H86.06C87.1744 53.3846 87.9655 53.1662 88.4332 52.7293C88.9056 52.2878 89.1418 51.7534 89.1418 51.126C89.1418 50.6426 89.0202 50.1965 88.7772 49.7875C88.5341 49.3739 88.1879 49.044 87.7385 48.7976C87.289 48.5467 86.7571 48.4212 86.1425 48.4212H82.6755V53.3846ZM82.6755 46.9155H85.8398C86.3535 46.9155 86.8167 46.8132 87.2294 46.6087C87.6467 46.4043 87.9769 46.1161 88.22 45.7443C88.4676 45.3725 88.5915 44.9357 88.5915 44.4338C88.5915 43.8064 88.3759 43.2743 87.9448 42.8374C87.5137 42.3959 86.8304 42.1752 85.8949 42.1752H82.6755V46.9155Z" fill="#313B49"/>
<path d="M94.3939 58.9335C94.1187 58.9335 93.8734 58.9103 93.6578 58.8638C93.4423 58.822 93.2933 58.7802 93.2107 58.7383L93.6234 57.2884C94.0178 57.3906 94.3664 57.4278 94.6691 57.3999C94.9717 57.372 95.24 57.2349 95.4739 56.9886C95.7124 56.7469 95.9302 56.3542 96.1274 55.8105L96.4301 54.974L92.5228 44.2107H94.2838L97.2005 52.7432H97.3106L100.227 44.2107H101.988L97.5032 56.4797C97.3014 57.0328 97.0515 57.4905 96.7534 57.853C96.4553 58.2202 96.1091 58.492 95.7147 58.6686C95.3249 58.8452 94.8846 58.9335 94.3939 58.9335Z" fill="#313B49"/>
<path d="M109.799 54.9182V40.6415H118.247V42.1752H111.505V46.9991H117.614V48.5327H111.505V54.9182H109.799Z" fill="#313B49"/>
<path d="M120.949 54.9182V44.2107H122.572V54.9182H120.949ZM121.774 42.4261C121.458 42.4261 121.185 42.3169 120.955 42.0985C120.731 41.88 120.618 41.6175 120.618 41.3107C120.618 41.004 120.731 40.7414 120.955 40.523C121.185 40.3046 121.458 40.1954 121.774 40.1954C122.09 40.1954 122.361 40.3046 122.586 40.523C122.815 40.7414 122.93 41.004 122.93 41.3107C122.93 41.6175 122.815 41.88 122.586 42.0985C122.361 42.3169 122.09 42.4261 121.774 42.4261Z" fill="#313B49"/>
<path d="M126.756 44.2107L129.288 48.5885L131.819 44.2107H133.69L130.278 49.5645L133.69 54.9182H131.819L129.288 50.7635L126.756 54.9182H124.885L128.242 49.5645L124.885 44.2107H126.756Z" fill="#313B49"/>
<path d="M140.002 55.1413C138.984 55.1413 138.105 54.9136 137.367 54.4581C136.633 53.998 136.067 53.3567 135.668 52.5341C135.274 51.7069 135.076 50.7449 135.076 49.6481C135.076 48.5513 135.274 47.5847 135.668 46.7482C136.067 45.907 136.622 45.2517 137.333 44.7823C138.048 44.3083 138.883 44.0713 139.837 44.0713C140.387 44.0713 140.93 44.1642 141.467 44.3501C142.003 44.536 142.492 44.8381 142.932 45.2564C143.372 45.67 143.723 46.2184 143.985 46.9015C144.246 47.5847 144.377 48.4259 144.377 49.425V50.1221H136.232V48.7H142.726C142.726 48.0959 142.607 47.5568 142.368 47.0828C142.134 46.6087 141.799 46.2346 141.364 45.9604C140.933 45.6862 140.424 45.5491 139.837 45.5491C139.19 45.5491 138.63 45.7118 138.158 46.0371C137.69 46.3578 137.33 46.776 137.078 47.2919C136.826 47.8078 136.7 48.3608 136.7 48.951V49.8991C136.7 50.7077 136.837 51.3932 137.113 51.9555C137.392 52.5132 137.78 52.9384 138.275 53.2312C138.77 53.5194 139.346 53.6634 140.002 53.6634C140.428 53.6634 140.813 53.603 141.157 53.4822C141.506 53.3567 141.806 53.1708 142.059 52.9245C142.311 52.6735 142.506 52.3622 142.643 51.9904L144.212 52.4365C144.047 52.9756 143.769 53.4496 143.379 53.8586C142.989 54.2629 142.508 54.579 141.935 54.8067C141.361 55.0297 140.717 55.1413 140.002 55.1413Z" fill="#313B49"/>
<path d="M151.552 44.2107V45.6049H145.856V44.2107H151.552ZM147.562 54.9182V42.7328C147.562 42.1194 147.704 41.6082 147.988 41.1992C148.273 40.7902 148.642 40.4835 149.096 40.279C149.55 40.0745 150.029 39.9723 150.533 39.9723C150.932 39.9723 151.258 40.0048 151.51 40.0699C151.762 40.135 151.951 40.1954 152.074 40.2511L151.607 41.6732C151.524 41.6454 151.409 41.6105 151.263 41.5687C151.12 41.5268 150.932 41.5059 150.699 41.5059C150.162 41.5059 149.774 41.643 149.536 41.9172C149.302 42.1914 149.185 42.5934 149.185 43.1232V54.9182H147.562Z" fill="#313B49"/>
<path d="M155.45 40.6415V54.9182H153.827V40.6415H155.45Z" fill="#313B49"/>
<path d="M159.469 58.9335C159.194 58.9335 158.949 58.9103 158.733 58.8638C158.518 58.822 158.369 58.7802 158.286 58.7383L158.699 57.2884C159.093 57.3906 159.442 57.4278 159.744 57.3999C160.047 57.372 160.315 57.2349 160.549 56.9886C160.788 56.7469 161.006 56.3542 161.203 55.8105L161.505 54.974L157.598 44.2107H159.359L162.276 52.7432H162.386L165.303 44.2107H167.064L162.579 56.4797C162.377 57.0328 162.127 57.4905 161.829 57.853C161.531 58.2202 161.184 58.492 160.79 58.6686C160.4 58.8452 159.96 58.9335 159.469 58.9335Z" fill="#313B49"/>
</g>
<g filter="url(#filter2_d_1_1556)">
<path d="M66.6205 29.6091V34.5686C66.6205 37.4555 66.6205 38.973 66.1391 40.3054C66.1021 40.3794 66.102 40.4164 66.065 40.4905C65.9169 40.8606 65.7317 41.2307 65.4725 41.5638C64.843 42.4891 63.8431 43.4884 62.2878 45.0429L45.0309 62.2902C43.5866 63.7336 42.6238 64.6959 41.735 65.3251C41.5499 65.4732 41.4017 65.5842 41.2166 65.6582C40.9944 65.8433 40.7352 65.9543 40.4759 66.0653C39.1058 66.6205 37.5874 66.6205 34.5508 66.6205H29.5885C15.6275 66.6205 8.62845 66.6205 4.29571 62.2902C0.407352 58.404 0 52.4081 0 41.2307H13.7759C19.4418 41.2307 24.0708 36.6043 24.0708 30.9045C24.0708 26.2411 20.9971 22.4289 16.5163 21.2816C14.7758 20.8374 12.9982 20.6524 11.2577 20.4303C8.73954 20.0972 6.11027 19.3199 4.22164 17.6174C2.22192 15.8039 1.14799 12.954 1.14799 10.2892V10.1041C1.25909 4.51539 5.85105 0 11.4799 0H22.8487C23.1079 0 23.3301 0 23.5894 0.0370114H23.9226C25.6632 0 27.5518 0 29.5885 0H36.9949C50.956 0 57.955 0 62.2878 4.33033C66.6205 8.66067 66.6205 15.6558 66.6205 29.6091Z" fill="url(#paint0_linear_1_1556)"/>
<path d="M66.1391 40.3054C66.1021 40.3794 66.102 40.4164 66.065 40.4905C65.9169 40.8606 65.7317 41.2307 65.4725 41.5638C64.843 42.4891 63.8431 43.4884 62.2878 45.0429L45.0309 62.2902C43.5866 63.7336 42.6238 64.6959 41.735 65.3251C41.5499 65.4732 41.4017 65.5842 41.2166 65.6582C41.0684 65.6582 40.9944 65.6952 40.9203 65.7322V61.846C40.9203 51.7049 40.9203 46.6344 44.1051 43.4514C47.2528 40.3054 52.3262 40.3054 62.4729 40.3054H66.1391Z" fill="#0050B3"/>
</g>
<defs>
<filter id="filter0_d_1_1556" x="64.8956" y="-4.88083" width="152.252" height="74.87" filterUnits="userSpaceOnUse" color-interpolation-filters="sRGB">
<feFlood flood-opacity="0" result="BackgroundImageFix"/>
<feColorMatrix in="SourceAlpha" type="matrix" values="0 0 0 0 0 0 0 0 0 0 0 0 0 0 0 0 0 0 127 0" result="hardAlpha"/>
<feOffset dx="8" dy="12"/>
<feGaussianBlur stdDeviation="12"/>
<feColorMatrix type="matrix" values="0 0 0 0 0 0 0 0 0 0 0 0 0 0 0 0 0 0 0.05 0"/>
<feBlend mode="normal" in2="BackgroundImageFix" result="effect1_dropShadow_1_1556"/>
<feBlend mode="normal" in="SourceGraphic" in2="effect1_dropShadow_1_1556" result="shape"/>
</filter>
<filter id="filter1_d_1_1556" x="64.8956" y="27.9169" width="134.316" height="67.1828" filterUnits="userSpaceOnUse" color-interpolation-filters="sRGB">
<feFlood flood-opacity="0" result="BackgroundImageFix"/>
<feColorMatrix in="SourceAlpha" type="matrix" values="0 0 0 0 0 0 0 0 0 0 0 0 0 0 0 0 0 0 127 0" result="hardAlpha"/>
<feOffset dx="8" dy="12"/>
<feGaussianBlur stdDeviation="12"/>
<feColorMatrix type="matrix" values="0 0 0 0 0 0 0 0 0 0 0 0 0 0 0 0 0 0 0.05 0"/>
<feBlend mode="normal" in2="BackgroundImageFix" result="effect1_dropShadow_1_1556"/>
<feBlend mode="normal" in="SourceGraphic" in2="effect1_dropShadow_1_1556" result="shape"/>
</filter>
<filter id="filter2_d_1_1556" x="-3.61662" y="-1.60739" width="83.8999" height="83.9001" filterUnits="userSpaceOnUse" color-interpolation-filters="sRGB">
<feFlood flood-opacity="0" result="BackgroundImageFix"/>
<feColorMatrix in="SourceAlpha" type="matrix" values="0 0 0 0 0 0 0 0 0 0 0 0 0 0 0 0 0 0 127 0" result="hardAlpha"/>
<feOffset dx="5" dy="7"/>
<feGaussianBlur stdDeviation="4.3"/>
<feComposite in2="hardAlpha" operator="out"/>
<feColorMatrix type="matrix" values="0 0 0 0 0 0 0 0 0 0 0 0 0 0 0 0 0 0 0.1 0"/>
<feBlend mode="normal" in2="BackgroundImageFix" result="effect1_dropShadow_1_1556"/>
<feBlend mode="normal" in="SourceGraphic" in2="effect1_dropShadow_1_1556" result="shape"/>
</filter>
<linearGradient id="paint0_linear_1_1556" x1="68.4906" y1="22.5303" x2="-2.91587" y2="39.9865" gradientUnits="userSpaceOnUse">
<stop stop-color="#0077FF"/>
<stop offset="1" stop-color="#2DC2FF"/>
</linearGradient>
</defs>
</svg>
