<svg width="12" height="12" viewBox="0 0 12 12" fill="none" xmlns="http://www.w3.org/2000/svg">
<path d="M3.29715 8.01692L3.29712 8.01669C3.26707 7.79144 3.1936 7.57493 3.08121 7.38018C2.96882 7.18544 2.81985 7.01652 2.64336 6.88351L2.6433 6.88347C2.29108 6.61717 1.85401 6.50323 1.42342 6.56503C0.992852 6.62683 0.60139 6.85967 0.331146 7.21555C0.227669 7.3541 0.145566 7.50871 0.087851 7.67379C0.029202 7.84871 0.0390512 8.04069 0.115186 8.20802C0.191338 8.37539 0.327439 8.50418 0.493453 8.56714C0.659398 8.63008 0.8424 8.6224 1.00302 8.54569C1.16372 8.46895 1.2895 8.32905 1.35248 8.15574L1.35277 8.15494L1.35278 8.15494C1.36299 8.12835 1.37688 8.10339 1.39404 8.08085L1.3946 8.08012L1.39461 8.08012C1.44848 8.01217 1.5256 7.96775 1.61048 7.9566C1.69518 7.94547 1.78056 7.9684 1.8492 8.02029C1.88029 8.04276 1.90648 8.07155 1.92623 8.10478C1.94609 8.13819 1.95905 8.1754 1.96439 8.2141L1.96443 8.21439C1.96925 8.25108 1.96683 8.28841 1.9573 8.32412C1.94782 8.35963 1.93149 8.39288 1.9092 8.42183L1.90203 8.43159L1.90174 8.43199L0.181203 10.8285L3.29715 8.01692ZM3.29715 8.01692C3.32785 8.23863 3.31548 8.4645 3.26078 8.6811C3.20609 8.8977 3.11021 9.10055 2.97892 9.27761L2.97849 9.27821L2.12167 10.4726L2.06844 10.5468M3.29715 8.01692L2.06844 10.5468M2.06844 10.5468H2.15976M2.06844 10.5468H2.15976M2.15976 10.5468H2.63977C2.81766 10.5468 2.98868 10.6204 3.11508 10.7521C3.24154 10.8838 3.31291 11.0629 3.31291 11.25C3.31291 11.4371 3.24154 11.6161 3.11508 11.7479C2.98868 11.8795 2.81766 11.9531 2.63977 11.9531H0.71974C0.719734 11.9531 0.719727 11.9531 0.71972 11.9531C0.595263 11.9531 0.473136 11.917 0.366977 11.8486C0.260791 11.7803 0.174688 11.6824 0.118526 11.5656C0.0623574 11.4489 0.0384268 11.318 0.0495222 11.1877C0.0606164 11.0574 0.10627 10.9331 0.181184 10.8285L2.15976 10.5468ZM1.0066 1.95404V1.88864L0.944667 1.90965C0.78501 1.96381 0.611699 1.95372 0.458741 1.88125C0.30572 1.80875 0.183822 1.6789 0.117612 1.51679C0.051387 1.35465 0.0458793 1.17242 0.102221 1.00621C0.158484 0.840225 0.272164 0.702712 0.420329 0.620275L1.37976 0.120565C1.48223 0.0672783 1.59594 0.0422011 1.71013 0.047592C1.82433 0.052983 1.93544 0.0886753 2.03293 0.151443C2.13043 0.214221 2.21114 0.302048 2.26721 0.406757C2.3233 0.511476 2.35283 0.629512 2.35289 0.749649V4.74976C2.35289 4.93685 2.28152 5.11591 2.15506 5.24764C2.02866 5.37931 1.85764 5.45291 1.67974 5.45291C1.50185 5.45291 1.33083 5.37931 1.20443 5.24764C1.07797 5.11591 1.0066 4.93685 1.0066 4.74976V1.95404ZM1.88594 8.12874C1.90256 8.1567 1.91346 8.18794 1.91795 8.2205L1.82135 8.05799C1.84733 8.07669 1.86932 8.10077 1.88594 8.12874ZM11.9531 6.24981C11.9531 6.4369 11.8818 6.61596 11.7553 6.74769C11.6289 6.87936 11.4579 6.95296 11.28 6.95296H5.27983C5.10194 6.95296 4.93092 6.87936 4.80452 6.74769C4.67806 6.61596 4.60669 6.4369 4.60669 6.24981C4.60669 6.06272 4.67806 5.88366 4.80452 5.75192C4.93092 5.62026 5.10194 5.54666 5.27983 5.54666H11.28C11.4579 5.54666 11.6289 5.62026 11.7553 5.75192C11.8818 5.88366 11.9531 6.06272 11.9531 6.24981ZM11.28 2.95282H5.27983C5.10194 2.95282 4.93092 2.87923 4.80452 2.74756C4.67806 2.61583 4.60669 2.43677 4.60669 2.24967C4.60669 2.06258 4.67806 1.88352 4.80452 1.75179C4.93092 1.62012 5.10194 1.54652 5.27983 1.54652H11.28C11.4579 1.54652 11.6289 1.62012 11.7553 1.75179C11.8818 1.88352 11.9531 2.06258 11.9531 2.24967C11.9531 2.43677 11.8818 2.61583 11.7553 2.74756C11.6289 2.87923 11.4579 2.95282 11.28 2.95282ZM5.27983 9.54679H11.28C11.4579 9.54679 11.6289 9.62039 11.7553 9.75206C11.8818 9.88379 11.9531 10.0629 11.9531 10.2499C11.9531 10.437 11.8818 10.6161 11.7553 10.7478C11.6289 10.8795 11.4579 10.9531 11.28 10.9531H5.27983C5.10194 10.9531 4.93092 10.8795 4.80452 10.7478C4.67806 10.6161 4.60669 10.437 4.60669 10.2499C4.60669 10.0629 4.67806 9.88379 4.80452 9.75206C4.93092 9.62039 5.10194 9.54679 5.27983 9.54679Z" fill="#94A3B8" stroke="#94A3B8" stroke-width="0.09375"/>
</svg>
