<svg width="19" height="19" viewBox="0 0 19 19" fill="none" xmlns="http://www.w3.org/2000/svg">
<path d="M7.125 11.875C7.125 9.63585 7.125 8.51628 7.82062 7.82062C8.51628 7.125 9.63585 7.125 11.875 7.125H12.6667C14.9058 7.125 16.0254 7.125 16.721 7.82062C17.4167 8.51628 17.4167 9.63585 17.4167 11.875V12.6667C17.4167 14.9058 17.4167 16.0254 16.721 16.721C16.0254 17.4167 14.9058 17.4167 12.6667 17.4167H11.875C9.63585 17.4167 8.51628 17.4167 7.82062 16.721C7.125 16.0254 7.125 14.9058 7.125 12.6667V11.875Z" stroke="#94A3B8" stroke-linecap="round" stroke-linejoin="round"/>
<path d="M13.4583 7.12504C13.4564 4.78401 13.421 3.57142 12.7395 2.74113C12.6079 2.58079 12.4609 2.43377 12.3006 2.30218C11.4247 1.58337 10.1234 1.58337 7.52084 1.58337C4.91826 1.58337 3.61696 1.58337 2.7411 2.30218C2.58076 2.43376 2.43374 2.58079 2.30215 2.74113C1.58334 3.61699 1.58334 4.91829 1.58334 7.52087C1.58334 10.1235 1.58334 11.4247 2.30215 12.3006C2.43373 12.461 2.58076 12.608 2.7411 12.7395C3.57138 13.421 4.78398 13.4564 7.12501 13.4583" stroke="#94A3B8" stroke-linecap="round" stroke-linejoin="round"/>
</svg>
