<svg width="32" height="32" viewBox="0 0 32 32" fill="none" xmlns="http://www.w3.org/2000/svg">
<path d="M29.9976 15.9976C29.9976 8.26692 23.7306 2 16 2C8.26936 2 2.00244 8.26692 2.00244 15.9976C2.00244 23.7281 8.26936 29.9951 16 29.9951C17.1782 29.9951 18.7995 30.1579 18.7995 28.5954C18.7995 27.7429 18.3561 27.0853 17.9157 26.4319C17.2713 25.476 16.6331 24.5295 17.3998 22.9964C18.333 21.1301 19.8883 21.1301 22.273 21.1301C23.4655 21.1301 24.8652 21.1301 26.4982 20.8967C29.4391 20.4767 29.9976 18.6689 29.9976 15.9976Z" stroke="#0077FF" stroke-width="2"/>
<path d="M9.00122 20.1994L9.01337 20.196" stroke="#C1DEFF" stroke-width="2" stroke-linecap="round" stroke-linejoin="round"/>
<path d="M12.5006 13.1981C13.6602 13.1981 14.6002 12.258 14.6002 11.0984C14.6002 9.93882 13.6602 8.99878 12.5006 8.99878C11.341 8.99878 10.401 9.93882 10.401 11.0984C10.401 12.258 11.341 13.1981 12.5006 13.1981Z" stroke="#C1DEFF" stroke-width="2"/>
<path d="M22.2989 14.5977C23.4585 14.5977 24.3986 13.6577 24.3986 12.4981C24.3986 11.3385 23.4585 10.3984 22.2989 10.3984C21.1393 10.3984 20.1993 11.3385 20.1993 12.4981C20.1993 13.6577 21.1393 14.5977 22.2989 14.5977Z" stroke="#C1DEFF" stroke-width="2"/>
</svg>
