<svg width="18" height="17" viewBox="0 0 18 17" fill="none" xmlns="http://www.w3.org/2000/svg">
<path d="M11.88 8.48571C11.88 10.0872 10.5906 11.3855 9 11.3855C7.40942 11.3855 6.12 10.0872 6.12 8.48571C6.12 6.88417 7.40942 5.58587 9 5.58587C10.5906 5.58587 11.88 6.88417 11.88 8.48571Z" stroke="white" stroke-width="1.5" stroke-linecap="round"/>
<path d="M16.4148 10.2227C16.8442 10.1061 17.059 10.0478 17.1437 9.93629C17.2286 9.82485 17.2286 9.64548 17.2286 9.28681V7.68469C17.2286 7.32602 17.2286 7.14664 17.1437 7.03521C17.0589 6.92369 16.8442 6.86536 16.4148 6.74877C14.8099 6.31297 13.8054 4.62355 14.2196 3.01816C14.3335 2.57666 14.3905 2.35591 14.3361 2.22644C14.2817 2.09697 14.1257 2.00775 13.8135 1.8293L12.3943 1.01799C12.088 0.842887 11.9349 0.755337 11.7975 0.773978C11.66 0.79262 11.5049 0.948391 11.1947 1.25992C9.99401 2.46604 8.00731 2.46599 6.80654 1.25984C6.4964 0.948308 6.34133 0.792546 6.20387 0.773896C6.06642 0.755254 5.91327 0.842804 5.60697 1.0179L4.1878 1.82923C3.87568 2.00766 3.71962 2.09688 3.66524 2.22632C3.61085 2.35578 3.66778 2.57656 3.78165 3.0181C4.19564 4.62354 3.1904 6.31301 1.58525 6.74879C1.1558 6.86536 0.941077 6.92369 0.856249 7.03512C0.771429 7.14664 0.771429 7.32602 0.771429 7.68469V9.28681C0.771429 9.64548 0.771429 9.82485 0.856249 9.93629C0.941061 10.0478 1.15579 10.1061 1.58525 10.2227C3.19013 10.6585 4.19458 12.348 3.78039 13.9533C3.66648 14.3948 3.60952 14.6155 3.6639 14.745C3.71829 14.8745 3.87436 14.9638 4.18649 15.1422L5.60567 15.9535C5.91199 16.1286 6.06515 16.2162 6.20261 16.1975C6.34008 16.1789 6.49512 16.023 6.8052 15.7115C8.00656 14.5044 9.99467 14.5044 11.1961 15.7114C11.5062 16.023 11.6612 16.1788 11.7987 16.1975C11.9361 16.2161 12.0893 16.1285 12.3956 15.9534L13.8148 15.1421C14.127 14.9637 14.2831 14.8745 14.3374 14.745C14.3918 14.6155 14.3348 14.3947 14.2209 13.9532C13.8065 12.348 14.8101 10.6586 16.4148 10.2227Z" stroke="white" stroke-width="1.5" stroke-linecap="round"/>
</svg>
