<svg width="15" height="15" viewBox="0 0 15 15" fill="none" xmlns="http://www.w3.org/2000/svg">
<path d="M8.95122 1.81976L8.58382 1.48064L8.58381 1.48065L8.95122 1.81976ZM10.0108 0.807224L9.7552 0.377501L9.75519 0.377504L10.0108 0.807224ZM12.1828 0.774598L12.4255 0.337474L12.4255 0.337461L12.1828 0.774598ZM14.2306 2.86656L13.7892 3.10133L13.7892 3.1014L14.2306 2.86656ZM14.1987 5.08532L13.7643 4.83775L13.7643 4.83776L14.1987 5.08532ZM13.2075 6.1677L13.5544 6.52781L13.5544 6.5278L13.2075 6.1677ZM6.62513 12.5076L6.27828 12.1475L6.27827 12.1475L6.62513 12.5076ZM4.39742 14.2781L4.21555 13.8124L4.2155 13.8124L4.39742 14.2781ZM1.58163 14.4775L1.59469 13.9777L1.59466 13.9777L1.58163 14.4775ZM1.38565 14.4724L1.37256 14.9722L1.37261 14.9722L1.38565 14.4724ZM0.600418 14.3105L0.975597 13.98L0.975508 13.9799L0.600418 14.3105ZM0.525163 13.4959L0.0266907 13.4571L0.0266906 13.4571L0.525163 13.4959ZM0.544063 13.2534L1.04254 13.2922L1.04254 13.2922L0.544063 13.2534ZM0.936491 10.8024L1.39507 11.0016L1.39507 11.0016L0.936491 10.8024ZM2.45245 8.86086L2.08504 8.52175L2.08503 8.52175L2.45245 8.86086ZM8.89963 13.9995C8.6235 13.9995 8.39965 14.2234 8.39965 14.4995C8.39965 14.7757 8.6235 14.9995 8.89963 14.9995V13.9995ZM14.4995 14.9995C14.7756 14.9995 14.9994 14.7757 14.9994 14.4995C14.9994 14.2234 14.7756 13.9995 14.4995 13.9995V14.9995ZM9.31863 2.15887C9.86486 1.56707 10.0676 1.35516 10.2664 1.23695L9.75519 0.377504C9.3997 0.588938 9.08084 0.94216 8.58382 1.48064L9.31863 2.15887ZM10.2664 1.23695C10.7822 0.930146 11.4159 0.920709 11.9401 1.21174L12.4255 0.337461C11.5899 -0.126409 10.5767 -0.111108 9.7552 0.377501L10.2664 1.23695ZM11.9401 1.21172C12.142 1.32384 12.3506 1.52942 12.9137 2.10463L13.6283 1.40512C13.1161 0.881864 12.7871 0.538223 12.4255 0.337474L11.9401 1.21172ZM12.9137 2.10463C13.4761 2.67915 13.6784 2.89308 13.7892 3.10133L14.672 2.63178C14.4766 2.26436 14.1412 1.92905 13.6283 1.40512L12.9137 2.10463ZM13.7892 3.1014C14.0782 3.64464 14.0687 4.3037 13.7643 4.83775L14.6331 5.33289C15.1073 4.50072 15.122 3.4775 14.672 2.63171L13.7892 3.1014ZM13.7643 4.83776C13.6476 5.0425 13.4393 5.25019 12.8607 5.80759L13.5544 6.5278C14.082 6.01953 14.4271 5.69437 14.6331 5.33288L13.7643 4.83776ZM12.8607 5.80759L6.27828 12.1475L6.97197 12.8677L13.5544 6.52781L12.8607 5.80759ZM6.27827 12.1475C5.20004 13.186 4.7559 13.6014 4.21555 13.8124L4.5793 14.7439C5.34922 14.4432 5.95347 13.8487 6.97198 12.8677L6.27827 12.1475ZM4.2155 13.8124C3.67624 14.0231 3.07639 14.0165 1.59469 13.9777L1.56856 14.9774C2.96775 15.0139 3.80833 15.045 4.57934 14.7438L4.2155 13.8124ZM1.59466 13.9777L1.39868 13.9726L1.37261 14.9722L1.56859 14.9774L1.59466 13.9777ZM1.39873 13.9726C1.16465 13.9665 1.04166 13.9621 0.95869 13.9483C0.891252 13.937 0.933068 13.9318 0.975597 13.98L0.225239 14.641C0.39522 14.834 0.610392 14.9039 0.794076 14.9346C0.962228 14.9627 1.16813 14.9669 1.37256 14.9722L1.39873 13.9726ZM0.975508 13.9799C1.01659 14.0266 1.00533 14.0637 1.00115 13.9887C0.996223 13.9002 1.00513 13.7722 1.02364 13.5347L0.0266906 13.4571C0.0103934 13.6662 -0.00680126 13.8732 0.00273362 14.0443C0.0130137 14.2287 0.0567858 14.4499 0.225328 14.6411L0.975508 13.9799ZM1.02364 13.5347L1.04254 13.2922L0.0455903 13.2145L0.0266907 13.4571L1.02364 13.5347ZM1.04254 13.2922C1.1431 12.0013 1.19068 11.4721 1.39507 11.0016L0.477917 10.6032C0.191286 11.2629 0.14092 11.9908 0.0455895 13.2145L1.04254 13.2922ZM1.39507 11.0016C1.59907 10.532 1.95014 10.1423 2.81986 9.19996L2.08503 8.52175C1.26082 9.41477 0.764915 9.94255 0.477915 10.6032L1.39507 11.0016ZM2.81985 9.19997L9.31863 2.15886L8.58381 1.48065L2.08504 8.52175L2.81985 9.19997ZM7.84611 2.25348L12.746 7.15332L13.453 6.44623L8.5532 1.5464L7.84611 2.25348ZM8.89963 14.9995H14.4995V13.9995H8.89963V14.9995Z" fill="#191919"/>
</svg>
