<svg width="30" height="27" viewBox="0 0 30 27" fill="none" xmlns="http://www.w3.org/2000/svg">
<path d="M22.2998 9.43955C22.3098 9.4395 22.32 9.43949 22.3302 9.43949C25.7064 9.43949 28.4434 12.1814 28.4434 15.564C28.4434 18.7163 26.066 21.3124 23.0094 21.6509M22.2998 9.43955C22.3199 9.2154 22.3302 8.9884 22.3302 8.75899C22.3302 4.62491 18.985 1.27358 14.8585 1.27358C10.9504 1.27358 7.74316 4.27948 7.41453 8.1094M22.2998 9.43955C22.1608 10.9835 21.5539 12.3923 20.6223 13.5224M7.41453 8.1094C3.9688 8.4379 1.27358 11.3453 1.27358 14.8834C1.27358 18.1755 3.60715 20.9217 6.70755 21.5522M7.41453 8.1094C7.62896 8.08896 7.84627 8.07849 8.06604 8.07849C9.59545 8.07849 11.0068 8.5849 12.1422 9.43949" stroke="#C1DEFF" stroke-width="2.5" stroke-linecap="round" stroke-linejoin="round"/>
<path d="M14.8585 14.8584V25.7263M14.8585 14.8584C13.9073 14.8584 12.13 17.5676 11.4623 18.2546M14.8585 14.8584C15.8097 14.8584 17.587 17.5676 18.2547 18.2546" stroke="#0077FF" stroke-width="2.5" stroke-linecap="round" stroke-linejoin="round"/>
</svg>
