<svg width="48" height="44" viewBox="0 0 48 44" fill="none" xmlns="http://www.w3.org/2000/svg">
<path d="M43.2001 43.1992C44.4731 43.1992 45.694 42.6935 46.5941 41.7934C47.4943 40.8932 48 39.6724 48 38.3993V26.6779C48 25.4049 47.4943 24.184 46.5941 23.2839C45.694 22.3837 44.4731 21.878 43.2001 21.878H36.5378C36.5378 20.1933 36.6386 18.5037 36.8354 16.8189C37.133 15.0333 37.6322 13.4446 38.3234 12.0574C39.0194 10.6654 39.9121 9.57583 41.0065 8.77905C42.0961 7.88626 43.4833 7.43987 45.1729 7.43987V0C42.3937 0 39.9649 0.59519 37.877 1.78557C35.8072 2.96388 34.0276 4.59089 32.6691 6.54709C31.3055 8.70376 30.3005 11.0672 29.6931 13.5454C29.0811 16.2802 28.7815 19.0756 28.8003 21.878V38.3993C28.8003 39.6724 29.306 40.8932 30.2062 41.7934C31.1064 42.6935 32.3272 43.1992 33.6002 43.1992H43.2001ZM14.4006 43.1992C15.6736 43.1992 16.8945 42.6935 17.7946 41.7934C18.6948 40.8932 19.2005 39.6724 19.2005 38.3993V26.6779C19.2005 25.4049 18.6948 24.184 17.7946 23.2839C16.8945 22.3837 15.6736 21.878 14.4006 21.878H7.7383C7.7383 20.1933 7.8391 18.5037 8.03589 16.8189C8.33349 15.0333 8.83268 13.4446 9.52387 12.0574C10.2199 10.6654 11.1126 9.57583 12.207 8.77905C13.2966 7.88626 14.6838 7.43987 16.3733 7.43987V0C13.5942 0 11.1654 0.59519 9.07747 1.78557C7.00768 2.96388 5.22814 4.59089 3.86956 6.54709C2.50603 8.70376 1.50102 11.0672 0.893617 13.5454C0.28156 16.2802 -0.0179544 19.0756 0.000831721 21.878V38.3993C0.000831721 39.6724 0.506536 40.8932 1.40669 41.7934C2.30685 42.6935 3.52773 43.1992 4.80075 43.1992H14.4006Z" fill="#ECF5FF"/>
</svg>
