<svg width="13" height="12" viewBox="0 0 13 12" fill="none" xmlns="http://www.w3.org/2000/svg">
<path d="M10.2609 6.73573H10.1584L10.2254 6.81327C10.6553 7.31035 10.8861 7.94976 10.8731 8.60778H10.8731V8.6087C10.8731 9.53347 10.375 10.4248 9.49974 11.0521L9.4997 11.0521C8.69164 11.6326 7.62512 11.9531 6.5 11.9531C5.37488 11.9531 4.30836 11.6326 3.5003 11.0521L3.50026 11.0521C2.62505 10.4248 2.12687 9.53347 2.12687 8.6087C2.12687 8.41352 2.20415 8.22636 2.34166 8.0884C2.47916 7.95044 2.66561 7.87296 2.86 7.87296C3.05439 7.87296 3.24084 7.95044 3.37834 8.0884C3.51585 8.22636 3.59313 8.41352 3.59313 8.6087C3.59313 9.12575 3.93477 9.59497 4.46343 9.9325C4.99301 10.2706 5.71696 10.4817 6.5 10.4817C7.28304 10.4817 8.00699 10.2706 8.53657 9.9325C9.06523 9.59497 9.40688 9.12575 9.40688 8.6087C9.40688 8.178 9.24898 7.8356 8.87529 7.53816C8.5051 7.24352 7.92332 6.993 7.07577 6.73773L7.07637 6.73573H7.06225H0.78C0.585614 6.73573 0.399157 6.65826 0.261658 6.5203C0.124153 6.38233 0.046875 6.19518 0.046875 6C0.046875 5.80482 0.124153 5.61767 0.261658 5.4797C0.399157 5.34174 0.585614 5.26427 0.78 5.26427H12.22C12.4144 5.26427 12.6008 5.34174 12.7383 5.4797C12.8758 5.61767 12.9531 5.80482 12.9531 6C12.9531 6.19518 12.8758 6.38233 12.7383 6.5203C12.6008 6.65826 12.4144 6.73573 12.22 6.73573H10.2609ZM3.58049 3.9116C3.44299 4.04956 3.25654 4.12704 3.06215 4.12704C2.86776 4.12704 2.68131 4.04956 2.54381 3.9116C2.4063 3.77364 2.32903 3.58648 2.32903 3.3913C2.32903 1.49253 4.11083 0.046875 6.5 0.046875C8.19303 0.046875 9.59668 0.777569 10.2595 1.99235C10.3418 2.1619 10.356 2.35669 10.2993 2.5365C10.2425 2.71665 10.1188 2.86792 9.95386 2.959C9.78896 3.05008 9.59548 3.07401 9.41348 3.02586C9.23186 2.9778 9.07552 2.86161 8.97675 2.70124C8.56816 1.95564 7.63791 1.51834 6.5 1.51834C5.73485 1.51834 5.06067 1.71588 4.57637 2.04831C4.09171 2.38098 3.79527 2.85065 3.79527 3.3913C3.79527 3.58648 3.718 3.77364 3.58049 3.9116Z" fill="#94A3B8" stroke="#94A3B8" stroke-width="0.09375"/>
</svg>
