<svg width="20" height="19" viewBox="0 0 20 19" fill="none" xmlns="http://www.w3.org/2000/svg">
<path d="M2.68213 12.5423C2.79801 12.8024 3.02861 13.0113 3.29396 13.1131L10.5547 15.8914C10.8421 16.0016 11.1201 15.9878 11.3573 15.8821C11.9079 15.6367 12.1166 15.0763 11.8882 14.5638C11.7621 14.2808 11.5451 14.1025 11.2943 14.0126L8.81843 13.0441L5.9779 12.1005L7.7584 11.4263L16.7759 7.40821C17.3572 7.1492 17.5735 6.58532 17.3213 6.01933C17.0691 5.45335 16.5052 5.23708 15.9239 5.4961L6.90639 9.51419L5.21449 10.3872L6.41235 7.64424L7.34773 5.15569C7.44526 4.90139 7.45775 4.62082 7.33506 4.34548C7.10331 3.82538 6.54708 3.60571 5.99639 3.85109C5.75929 3.95674 5.56649 4.16182 5.44776 4.4714L2.66688 11.7058C2.56511 11.9711 2.56626 12.2823 2.68213 12.5423Z" fill="#FDFDFD"/>
</svg>
