<svg width="20" height="19" viewBox="0 0 20 19" fill="none" xmlns="http://www.w3.org/2000/svg">
<path d="M15.0562 6.59191C15.0631 6.59187 15.07 6.59186 15.0769 6.59186C17.371 6.59186 19.2308 8.547 19.2308 10.9589C19.2308 13.2066 17.6154 15.0578 15.5385 15.2991M15.0562 6.59191C15.0699 6.43208 15.0769 6.27022 15.0769 6.10664C15.0769 3.15887 12.8039 0.769231 10 0.769231C7.34453 0.769231 5.16523 2.91256 4.94193 5.64346M15.0562 6.59191C14.9618 7.69283 14.5495 8.69733 13.9164 9.50316M4.94193 5.64346C2.6006 5.87769 0.769231 7.95079 0.769231 10.4736C0.769231 12.821 2.35486 14.7792 4.46154 15.2287M4.94193 5.64346C5.08762 5.62888 5.23529 5.62142 5.38462 5.62142C6.42383 5.62142 7.38284 5.98251 8.15431 6.59186M10 10.4558V18.2051M10 10.4558C9.35366 10.4558 8.14603 12.3876 7.69231 12.8775M10 10.4558C10.6463 10.4558 11.854 12.3876 12.3077 12.8775" stroke="white" stroke-width="1.5" stroke-linecap="round" stroke-linejoin="round"/>
</svg>
