<svg width="9" height="9" viewBox="0 0 9 9" fill="none" xmlns="http://www.w3.org/2000/svg">
<path d="M6.43322 1.23884H6.40054L6.38924 1.26951L4.02082 7.69808L3.99758 7.76116H4.0648H5.44737C5.62481 7.76116 5.79416 7.82498 5.91834 7.93733C6.04236 8.04955 6.11102 8.20068 6.11102 8.35714C6.11102 8.51361 6.04236 8.66474 5.91834 8.77695C5.79416 8.88931 5.62481 8.95312 5.44737 8.95312H0.710526C0.533085 8.95312 0.363739 8.88931 0.239557 8.77695C0.115531 8.66474 0.046875 8.51361 0.046875 8.35714C0.046875 8.20068 0.115531 8.04955 0.239557 7.93733C0.363739 7.82498 0.533085 7.76116 0.710526 7.76116H2.56678H2.59946L2.61076 7.73049L4.97918 1.30192L5.00242 1.23884H4.9352H3.55263C3.37519 1.23884 3.20584 1.17502 3.08166 1.06267C2.95764 0.950452 2.88898 0.799321 2.88898 0.642857C2.88898 0.486393 2.95764 0.335262 3.08166 0.223048C3.20584 0.110693 3.37519 0.046875 3.55263 0.046875H8.28947C8.46692 0.046875 8.63626 0.110693 8.76044 0.223048C8.88447 0.335262 8.95312 0.486393 8.95312 0.642857C8.95312 0.799321 8.88447 0.950452 8.76044 1.06267C8.63626 1.17502 8.46692 1.23884 8.28947 1.23884H6.43322Z" fill="#94A3B8" stroke="#94A3B8" stroke-width="0.09375"/>
</svg>
