<svg width="20" height="20" viewBox="0 0 20 20" fill="none" xmlns="http://www.w3.org/2000/svg">
<g clip-path="url(#clip0_1_1522)">
<path d="M18.5817 0.507021L5.07051 0.5C4.92079 0.5 4.78385 0.575479 4.70899 0.698353L0.0585659 8.29543C-0.10576 8.564 0.0950847 8.90453 0.420085 8.90453H6.41797C6.56769 8.90453 6.70463 8.82905 6.77949 8.70442L8.14157 6.47515C8.21643 6.35228 8.3552 6.27504 8.50492 6.2768L15.7772 6.28031C15.9306 6.28031 16.073 6.19956 16.1461 6.06967L18.9487 1.10383C19.1003 0.835269 18.8976 0.507021 18.5799 0.507021H18.5817Z" fill="#8D9199"/>
<path d="M12.8757 9.11869C12.8026 8.98879 12.6602 8.90805 12.5068 8.90805L6.86132 8.90454C6.7116 8.90454 6.57466 8.98002 6.49798 9.10289L3.62775 13.7931C3.55289 13.916 3.55107 14.067 3.62045 14.1898L6.49798 19.2891C6.65317 19.5647 7.06399 19.5717 7.23014 19.3014L9.93422 14.8797C10.0091 14.7568 10.1478 14.6796 10.2976 14.6796L15.3113 14.6831C15.6308 14.6831 15.8335 14.3566 15.6801 14.0863L12.8757 9.11869Z" fill="#8D9199"/>
</g>
<defs>
<clipPath id="clip0_1_1522">
<rect width="20" height="20" fill="white"/>
</clipPath>
</defs>
</svg>
