<svg width="31" height="31" viewBox="0 0 31 31" fill="none" xmlns="http://www.w3.org/2000/svg">
<path d="M30.9998 13.7777V16.0855C30.9998 17.4288 30.9998 18.1349 30.7758 18.7549C30.7586 18.7893 30.7586 18.8066 30.7414 18.841C30.6724 19.0132 30.5863 19.1855 30.4657 19.3405C30.1727 19.771 29.7075 20.236 28.9837 20.9593L20.9538 28.9849C20.2817 29.6565 19.8337 30.1043 19.4201 30.3971C19.334 30.466 19.265 30.5176 19.1789 30.5521C19.0755 30.6382 18.9549 30.6898 18.8343 30.7415C18.1967 30.9998 17.4902 30.9998 16.0772 30.9998H13.7681C7.27178 30.9998 4.01499 30.9998 1.99888 28.9849C0.189549 27.1765 0 24.3865 0 19.1855H6.4102C9.04665 19.1855 11.2006 17.0327 11.2006 14.3805C11.2006 12.2105 9.77038 10.4366 7.68534 9.90273C6.87545 9.69606 6.04833 9.60995 5.23844 9.50662C4.06668 9.35162 2.84323 8.98995 1.96441 8.19774C1.0339 7.35385 0.534183 6.02775 0.534183 4.78775V4.70164C0.585878 2.1011 2.72261 0 5.34183 0H10.632C10.7526 0 10.856 0 10.9766 0.0172221H11.1317C11.9416 0 12.8204 0 13.7681 0H17.2145C23.7108 0 26.9676 0 28.9837 2.01499C30.9998 4.02998 30.9998 7.28496 30.9998 13.7777Z" fill="url(#paint0_linear_1_1538)"/>
<path d="M30.7758 18.7549C30.7586 18.7893 30.7586 18.8066 30.7414 18.841C30.6724 19.0132 30.5863 19.1855 30.4657 19.3405C30.1727 19.771 29.7075 20.236 28.9837 20.9593L20.9538 28.9849C20.2817 29.6565 19.8337 30.1043 19.4201 30.3971C19.334 30.466 19.265 30.5176 19.1789 30.5521C19.11 30.5521 19.0755 30.5693 19.041 30.5865V28.7782C19.041 24.0593 19.041 21.6999 20.523 20.2188C21.9877 18.7549 24.3484 18.7549 29.0699 18.7549H30.7758Z" fill="#0050B3"/>
<defs>
<linearGradient id="paint0_linear_1_1538" x1="31.87" y1="10.4838" x2="-1.35681" y2="18.6065" gradientUnits="userSpaceOnUse">
<stop stop-color="#0077FF"/>
<stop offset="1" stop-color="#2DC2FF"/>
</linearGradient>
</defs>
</svg>
