<svg width="16" height="9" viewBox="0 0 16 9" fill="none" xmlns="http://www.w3.org/2000/svg">
<path d="M1.91281 4.53634L5.9069 7.79112C5.9069 7.79112 5.90691 7.79113 5.90692 7.79113C6.0513 7.90892 6.13781 8.07363 6.14902 8.24855C6.16023 8.42344 6.09538 8.59602 5.96734 8.72821C5.83916 8.86055 5.65812 8.94147 5.46373 8.95196C5.26933 8.96246 5.07894 8.90158 4.93442 8.78368L0.291611 4.99628L0.29147 4.99617C0.214225 4.93365 0.152655 4.857 0.110591 4.77149C0.0685372 4.68599 0.046875 4.59346 0.046875 4.5C0.046875 4.40654 0.0685372 4.31401 0.110591 4.22851C0.152655 4.143 0.214225 4.06635 0.29147 4.00383L0.29161 4.00372L4.93442 0.216319C5.07894 0.0984251 5.26933 0.0375433 5.46373 0.0480376C5.65812 0.0585316 5.83916 0.139449 5.96734 0.271788C6.09538 0.403983 6.16023 0.576556 6.14902 0.751447C6.13781 0.926373 6.0513 1.09108 5.90692 1.20887C5.90691 1.20887 5.9069 1.20888 5.9069 1.20888L1.91281 4.46366L1.86822 4.5L1.91281 4.53634ZM15.7084 4.00372L15.7085 4.00383C15.7858 4.06635 15.8473 4.143 15.8894 4.22851C15.9315 4.31401 15.9531 4.40654 15.9531 4.5C15.9531 4.59346 15.9315 4.68599 15.8894 4.77149C15.8473 4.857 15.7858 4.93365 15.7085 4.99617L15.7084 4.99628L11.0656 8.78368C10.9941 8.84202 10.9105 8.88703 10.8196 8.91597C10.7287 8.9449 10.6324 8.95715 10.5363 8.95196C10.4401 8.94677 10.3461 8.92425 10.2596 8.88578C10.1732 8.84731 10.0961 8.79371 10.0327 8.72821C9.96923 8.66272 9.92069 8.58664 9.8896 8.50439C9.85851 8.42216 9.84542 8.33525 9.85097 8.24855C9.85653 8.16186 9.88064 8.07686 9.92209 7.99841C9.96355 7.91994 10.0216 7.84946 10.0931 7.79113C10.0931 7.79112 10.0931 7.79112 10.0931 7.79112L14.0853 4.53633L14.1298 4.5L14.0853 4.46367L10.0931 1.20888C10.0931 1.20888 10.0931 1.20888 10.0931 1.20887C10.0216 1.15054 9.96355 1.08006 9.9221 1.00159C9.88064 0.923136 9.85653 0.838143 9.85097 0.751447C9.84542 0.664754 9.85851 0.577837 9.8896 0.495607C9.92069 0.413363 9.96923 0.337277 10.0327 0.271788C10.0961 0.206289 10.1732 0.152687 10.2596 0.114221C10.3461 0.0757531 10.4401 0.0532295 10.5363 0.0480376C10.6324 0.0428457 10.7287 0.0550961 10.8196 0.0840328C10.9105 0.112969 10.9941 0.157978 11.0656 0.216319L15.7084 4.00372Z" fill="#94A3B8" stroke="#94A3B8" stroke-width="0.09375"/>
</svg>
