<svg width="9" height="9" viewBox="0 0 9 9" fill="none" xmlns="http://www.w3.org/2000/svg">
<path d="M7.28553 3.97895L7.23736 4.02694L7.29935 4.05489C7.92253 4.3359 8.41181 4.7775 8.69215 5.30852C8.9723 5.83918 9.02857 6.43007 8.85288 6.98903C8.67708 7.54833 8.2783 8.04599 7.71674 8.40236C7.15512 8.75876 6.46356 8.95288 5.75088 8.95312C5.75087 8.95312 5.75086 8.95312 5.75086 8.95312H0.750114C0.560897 8.95312 0.380874 8.89155 0.249384 8.78399C0.118155 8.67664 0.046875 8.53329 0.046875 8.38636V0.613636C0.046875 0.466708 0.118155 0.323363 0.249384 0.216011C0.380874 0.108445 0.560897 0.046875 0.750114 0.046875L5.00075 0.046875C5.00075 0.046875 5.00076 0.046875 5.00076 0.046875C5.56199 0.0470398 6.11113 0.177624 6.58419 0.422859C7.05725 0.668095 7.43401 1.01746 7.67188 1.42921C7.90963 1.84076 7.99921 2.2982 7.93114 2.74867C7.86306 3.19925 7.63976 3.62603 7.28553 3.97895ZM1.50023 1.1804H1.45335V1.22727V3.68182V3.72869H1.50023H5.00076C5.40837 3.72869 5.80073 3.59631 6.09126 3.35864C6.38206 3.12075 6.54786 2.79586 6.54786 2.45455C6.54786 2.11323 6.38206 1.78834 6.09126 1.55045C5.80073 1.31278 5.40837 1.1804 5.00076 1.1804H1.50023ZM1.45335 7.77273V7.8196H1.50023H5.75088C6.2248 7.8196 6.68076 7.66567 7.01818 7.38964C7.35587 7.11339 7.54802 6.73647 7.54802 6.34091C7.54802 5.94535 7.35587 5.56842 7.01818 5.29218C6.68076 5.01615 6.2248 4.86222 5.75088 4.86222H1.50023H1.45335V4.90909V7.77273Z" fill="#94A3B8" stroke="#94A3B8" stroke-width="0.09375"/>
</svg>
