<svg width="20" height="20" viewBox="0 0 20 20" fill="none" xmlns="http://www.w3.org/2000/svg">
<g clip-path="url(#clip0_1_1528)">
<path d="M10 5.61538C9.1328 5.61538 8.28508 5.87254 7.56404 6.35433C6.84299 6.83611 6.281 7.5209 5.94914 8.32208C5.61728 9.12326 5.53045 10.0049 5.69963 10.8554C5.86882 11.7059 6.28641 12.4872 6.89961 13.1004C7.51281 13.7136 8.29407 14.1312 9.1446 14.3004C9.99514 14.4695 10.8767 14.3827 11.6779 14.0509C12.4791 13.719 13.1639 13.157 13.6457 12.436C14.1275 11.7149 14.3846 10.8672 14.3846 10C14.3834 8.8375 13.9211 7.72296 13.0991 6.90094C12.277 6.07893 11.1625 5.61659 10 5.61538ZM10 12.9231C9.42187 12.9231 8.85672 12.7516 8.37603 12.4304C7.89533 12.1093 7.52067 11.6527 7.29943 11.1186C7.07819 10.5845 7.0203 9.99676 7.13309 9.42974C7.24588 8.86271 7.52427 8.34187 7.93307 7.93307C8.34187 7.52427 8.86271 7.24588 9.42974 7.13309C9.99676 7.0203 10.5845 7.07819 11.1186 7.29943C11.6527 7.52067 12.1093 7.89533 12.4304 8.37603C12.7516 8.85672 12.9231 9.42187 12.9231 10C12.9231 10.7752 12.6151 11.5187 12.0669 12.0669C11.5187 12.6151 10.7752 12.9231 10 12.9231ZM14.3846 0.5H5.61538C4.25915 0.501451 2.95887 1.04086 1.99986 1.99986C1.04086 2.95887 0.501451 4.25915 0.5 5.61538V14.3846C0.501451 15.7409 1.04086 17.0411 1.99986 18.0001C2.95887 18.9591 4.25915 19.4985 5.61538 19.5H14.3846C15.7409 19.4985 17.0411 18.9591 18.0001 18.0001C18.9591 17.0411 19.4985 15.7409 19.5 14.3846V5.61538C19.4985 4.25915 18.9591 2.95887 18.0001 1.99986C17.0411 1.04086 15.7409 0.501451 14.3846 0.5ZM18.0385 14.3846C18.0385 15.3537 17.6535 16.283 16.9683 16.9683C16.283 17.6535 15.3537 18.0385 14.3846 18.0385H5.61538C4.64632 18.0385 3.71695 17.6535 3.03173 16.9683C2.3465 16.283 1.96154 15.3537 1.96154 14.3846V5.61538C1.96154 4.64632 2.3465 3.71695 3.03173 3.03173C3.71695 2.3465 4.64632 1.96154 5.61538 1.96154H14.3846C15.3537 1.96154 16.283 2.3465 16.9683 3.03173C17.6535 3.71695 18.0385 4.64632 18.0385 5.61538V14.3846ZM15.8462 5.25C15.8462 5.4668 15.7819 5.67873 15.6614 5.85899C15.541 6.03925 15.3698 6.17975 15.1695 6.26271C14.9692 6.34568 14.7488 6.36739 14.5362 6.32509C14.3235 6.2828 14.1282 6.1784 13.9749 6.0251C13.8216 5.8718 13.7172 5.67648 13.6749 5.46385C13.6326 5.25122 13.6543 5.03082 13.7373 4.83052C13.8203 4.63022 13.9607 4.45903 14.141 4.33858C14.3213 4.21813 14.5332 4.15385 14.75 4.15385C15.0407 4.15385 15.3195 4.26933 15.5251 4.4749C15.7307 4.68047 15.8462 4.95928 15.8462 5.25Z" fill="#8D9199"/>
</g>
<defs>
<clipPath id="clip0_1_1528">
<rect width="20" height="20" fill="white"/>
</clipPath>
</defs>
</svg>
