<svg width="21" height="20" viewBox="0 0 21 20" fill="none" xmlns="http://www.w3.org/2000/svg">
<path d="M4.93414 4.70575C4.93414 4.17628 4.91867 3.68217 4.93955 3.18952C4.95347 2.86182 4.96739 2.52088 5.06868 2.21233C5.55737 0.721133 7.42475 0.114346 8.78798 0.984762C8.85138 1.02526 8.91479 1.06724 8.99211 1.11805C9.5674 0.337473 10.3391 -0.0822705 11.352 0.0134604C12.3689 0.109191 13.0424 0.661485 13.4514 1.55547C14.128 1.16812 14.8401 1.05987 15.5886 1.29257C16.3426 1.52675 16.8421 2.02307 17.1382 2.70203C17.4313 2.59967 17.7081 2.46565 18.0019 2.406C19.5987 2.0842 20.989 3.19615 20.9944 4.80001C21.0029 7.1977 21.0006 9.59539 20.9952 11.9931C20.9928 13.0675 21.0222 14.1448 20.9495 15.2155C20.7879 17.5882 18.6576 19.667 16.1755 19.9299C15.8601 19.9631 15.5415 19.9807 15.2237 19.9815C13.1205 19.9859 11.0165 19.9424 8.91556 19.9977C7.33969 20.0389 6.00585 19.5308 4.8081 18.6287C2.52085 16.9041 1.13906 14.6279 0.41299 11.9666C0.132303 10.94 0.00703735 9.89216 7.81666e-05 8.83176C-0.0138402 6.59018 1.83266 4.76908 4.18564 4.70649C4.4238 4.69986 4.66273 4.70575 4.93414 4.70575ZM4.93414 5.87809C4.64417 5.87809 4.39519 5.86851 4.1462 5.87956C2.65848 5.9451 1.40506 7.0519 1.26433 8.46135C1.16922 9.40982 1.29758 10.3517 1.50867 11.278C2.09247 13.8355 3.35904 16.0108 5.52335 17.6677C6.52934 18.438 7.64744 18.8622 8.98283 18.8275C11.0837 18.773 13.1877 18.8194 15.2909 18.8077C15.683 18.8054 16.0851 18.7701 16.4647 18.6817C18.4357 18.2222 19.7448 16.6051 19.7495 14.6286C19.7564 11.5328 19.7518 8.43705 19.751 5.34199C19.751 5.1034 19.758 4.86408 19.7448 4.62548C19.7108 3.99734 19.1556 3.5069 18.503 3.51942C17.8396 3.53194 17.3114 4.0268 17.3045 4.66083C17.2936 5.57911 17.2952 6.49813 17.2913 7.41641C17.2898 7.9363 17.0771 8.21687 16.6789 8.22497C16.273 8.23307 16.0472 7.94219 16.0464 7.40831C16.0449 6.09459 16.0549 4.7816 16.0379 3.46788C16.0294 2.82353 15.4587 2.3331 14.7876 2.34635C14.1295 2.35887 13.6037 2.85593 13.5991 3.49439C13.5883 4.82652 13.5906 6.15792 13.5852 7.49005C13.5836 7.94956 13.3385 8.23086 12.9542 8.22497C12.5792 8.21908 12.3441 7.94514 12.3426 7.50036C12.3395 6.76544 12.3418 6.03052 12.3418 5.2956C12.341 4.30368 12.3542 3.31176 12.3356 2.31984C12.3201 1.47888 11.434 0.941314 10.6322 1.26385C10.111 1.47299 9.83495 1.98994 9.84422 2.62029C9.8682 4.27275 9.87206 5.92595 9.87747 7.57915C9.87747 7.69403 9.84268 7.81774 9.78932 7.92158C9.66947 8.1528 9.39342 8.26326 9.13052 8.20656C8.84365 8.1447 8.65498 7.94146 8.64338 7.63291C8.62792 7.2382 8.63797 6.84276 8.63719 6.44805C8.63642 5.28161 8.64493 4.11443 8.63333 2.94798C8.6256 2.149 7.90339 1.61438 7.10617 1.79553C6.53939 1.9244 6.17983 2.38391 6.17906 3.00395C6.17596 4.86849 6.17828 6.73304 6.17674 8.59758C6.17674 8.71614 6.17287 8.83765 6.14503 8.95252C6.08086 9.22204 5.8427 9.39657 5.56201 9.39951C5.28364 9.40246 5.03698 9.22867 4.96971 8.96357C4.94032 8.84943 4.93568 8.72719 4.93568 8.60936C4.93259 7.70949 4.93414 6.81036 4.93414 5.87809Z" fill="#94A3B8"/>
</svg>
