<svg width="198" height="40" viewBox="0 0 198 40" fill="none" xmlns="http://www.w3.org/2000/svg">
<path d="M2.17934 10.6214L2.17924 10.6214C2.08437 10.5846 1.99977 10.533 1.93004 10.4698C1.86032 10.4067 1.80695 10.3334 1.77242 10.2544C1.73791 10.1754 1.72276 10.0919 1.72753 10.0086C1.73231 9.92534 1.75695 9.84324 1.8005 9.767L1.80051 9.76699L6.28051 1.92103L6.28052 1.92101C6.34343 1.81071 6.44392 1.71613 6.57149 1.64938C6.69907 1.58262 6.84772 1.54688 7 1.54688C7.15228 1.54688 7.30093 1.58262 7.42851 1.64938C7.55608 1.71613 7.65657 1.81071 7.71948 1.92101L7.71949 1.92103L12.1995 9.76699C12.2871 9.92052 12.297 10.0954 12.2275 10.2543C12.1578 10.414 12.0126 10.547 11.8208 10.6214C11.6289 10.6958 11.4085 10.7044 11.2087 10.6451C11.0089 10.5858 10.8485 10.4643 10.7605 10.3101L9.66991 8.39996L9.65641 8.37633H9.6292H4.3708H4.34356L4.33007 8.39999L3.24157 10.3101L3.24156 10.3102C3.19802 10.3867 3.13622 10.456 3.0592 10.5138C2.98217 10.5716 2.89161 10.6166 2.79257 10.6459C2.69353 10.6753 2.58825 10.6882 2.48285 10.684C2.37744 10.6798 2.27429 10.6585 2.17934 10.6214ZM7.04071 3.79507L7 3.72378L6.95929 3.79507L5.12039 7.01537L5.08035 7.08549H5.1611H8.8389H8.91965L8.87961 7.01537L7.04071 3.79507ZM13.9531 12.8077C13.9531 12.9756 13.8723 13.139 13.7242 13.2611C13.5758 13.3833 13.373 13.4531 13.16 13.4531H0.84C0.627033 13.4531 0.424193 13.3833 0.275843 13.2611C0.12775 13.139 0.046875 12.9756 0.046875 12.8077C0.046875 12.6398 0.12775 12.4764 0.275843 12.3544C0.424193 12.2321 0.627033 12.1623 0.84 12.1623H13.16C13.373 12.1623 13.5758 12.2321 13.7242 12.3544C13.8723 12.4764 13.9531 12.6398 13.9531 12.8077Z" fill="#94A3B8" stroke="#94A3B8" stroke-width="0.09375"/>
<path d="M52.7209 6.81937L52.7211 6.8195C52.7947 6.89121 52.853 6.97638 52.8928 7.07011C52.9326 7.16384 52.9531 7.26429 52.9531 7.36573C52.9531 7.46716 52.9326 7.56762 52.8928 7.66135C52.853 7.75507 52.7947 7.84025 52.7211 7.91195L52.721 7.91203L49.492 11.0711L49.4919 11.0712C49.3673 11.1939 49.219 11.2913 49.0556 11.3575C48.8922 11.4238 48.7169 11.4577 48.54 11.4573C48.3887 11.4566 48.2386 11.4315 48.0958 11.3827L48.0685 11.3734L48.0479 11.3936L46.7055 12.7073C46.4531 12.9542 46.1105 13.0931 45.7532 13.0931C45.3959 13.0931 45.0533 12.9542 44.8009 12.7073L44.6714 12.5805L44.6386 12.5484L44.6058 12.5805L42.4107 14.7265L42.4106 14.7266C42.3374 14.7983 42.2504 14.8553 42.1545 14.8942C42.0586 14.9331 41.9558 14.9531 41.852 14.9531H41.8519C41.7672 14.9532 41.683 14.9398 41.6027 14.9132L41.6025 14.9132L36.5867 13.277L36.5866 13.277C36.4589 13.2354 36.3442 13.1626 36.2534 13.0655C36.1627 12.9685 36.0989 12.8504 36.068 12.7226C36.0371 12.5948 36.0401 12.4615 36.0768 12.3351C36.1134 12.2088 36.1825 12.0936 36.2775 12.0005L40.1432 8.21627L40.1771 8.18304L40.1434 8.14954L40.016 8.02274L40.0157 8.02247C39.7634 7.7755 39.6218 7.44079 39.6218 7.09202C39.6218 6.74324 39.7634 6.40854 40.0157 6.16156C40.0157 6.16156 40.0157 6.16156 40.0157 6.16156L41.3588 4.8472L41.3803 4.82621L41.3702 4.79794C41.2868 4.5645 41.2724 4.31285 41.3285 4.07179C41.3846 3.83072 41.5091 3.60988 41.6877 3.43463L44.9166 0.273524C44.9166 0.273522 44.9166 0.27352 44.9166 0.273517C45.0648 0.128513 45.266 0.046875 45.4759 0.046875C45.6859 0.046875 45.8871 0.128516 46.0353 0.273524C46.1834 0.418499 46.2665 0.614908 46.2665 0.819486C46.2665 1.02406 46.1834 1.22047 46.0353 1.36544L43.0035 4.33162L42.9693 4.36512L43.0035 4.39863L48.507 9.78424L48.5398 9.81632L48.5726 9.78424L51.6023 6.81943L51.6023 6.81937C51.6756 6.74742 51.7627 6.69029 51.8587 6.65128C51.9547 6.61228 52.0576 6.59219 52.1616 6.59219C52.2656 6.59219 52.3686 6.61228 52.4646 6.65128C52.5606 6.69029 52.6477 6.74742 52.7209 6.81937ZM41.6118 13.2905L41.6388 13.2993L41.6591 13.2794L43.4871 11.4885L43.5213 11.455L43.4871 11.4215L41.3275 9.3082L41.2947 9.27613L41.2619 9.30819L38.3506 12.1551L38.2953 12.2092L38.3689 12.2331L41.6118 13.2905ZM45.7204 11.4204L45.7532 11.4524L45.786 11.4204L46.831 10.3978L46.8652 10.3643L46.831 10.3308L42.4421 6.03593L42.4093 6.00385L42.3765 6.03593L41.3316 7.05851L41.2974 7.09195L41.3315 7.12545L41.8533 7.63811L41.8534 7.63818L45.7204 11.4204Z" fill="#94A3B8" stroke="#94A3B8" stroke-width="0.09375"/>
<path d="M82.2855 6.97895L82.2374 7.02694L82.2993 7.05489C82.9225 7.3359 83.4118 7.7775 83.6921 8.30852C83.9723 8.83918 84.0286 9.43007 83.8529 9.98903C83.6771 10.5483 83.2783 11.046 82.7167 11.4024C82.1551 11.7588 81.4636 11.9529 80.7509 11.9531C80.7509 11.9531 80.7509 11.9531 80.7509 11.9531H75.7501C75.5609 11.9531 75.3809 11.8916 75.2494 11.784C75.1182 11.6766 75.0469 11.5333 75.0469 11.3864V3.61364C75.0469 3.46671 75.1182 3.32336 75.2494 3.21601C75.3809 3.10844 75.5609 3.04688 75.7501 3.04688L80.0007 3.04687C80.0008 3.04687 80.0008 3.04688 80.0008 3.04688C80.562 3.04704 81.1111 3.17762 81.5842 3.42286C82.0573 3.66809 82.434 4.01746 82.6719 4.42921C82.9096 4.84076 82.9992 5.2982 82.9311 5.74867C82.8631 6.19925 82.6398 6.62603 82.2855 6.97895ZM76.5002 4.1804H76.4534V4.22727V6.68182V6.72869H76.5002H80.0008C80.4084 6.72869 80.8007 6.59631 81.0913 6.35864C81.3821 6.12075 81.5479 5.79586 81.5479 5.45455C81.5479 5.11323 81.3821 4.78834 81.0913 4.55045C80.8007 4.31278 80.4084 4.1804 80.0008 4.1804H76.5002ZM76.4534 10.7727V10.8196H76.5002H80.7509C81.2248 10.8196 81.6808 10.6657 82.0182 10.3896C82.3559 10.1134 82.548 9.73647 82.548 9.34091C82.548 8.94535 82.3559 8.56842 82.0182 8.29218C81.6808 8.01615 81.2248 7.86222 80.7509 7.86222H76.5002H76.4534V7.90909V10.7727Z" fill="#94A3B8" stroke="#94A3B8" stroke-width="0.09375"/>
<path d="M112.433 4.23884H112.401L112.389 4.26951L110.021 10.6981L109.998 10.7612H110.065H111.447C111.625 10.7612 111.794 10.825 111.918 10.9373C112.042 11.0495 112.111 11.2007 112.111 11.3571C112.111 11.5136 112.042 11.6647 111.918 11.777C111.794 11.8893 111.625 11.9531 111.447 11.9531H106.711C106.533 11.9531 106.364 11.8893 106.24 11.777C106.116 11.6647 106.047 11.5136 106.047 11.3571C106.047 11.2007 106.116 11.0495 106.24 10.9373C106.364 10.825 106.533 10.7612 106.711 10.7612H108.567H108.599L108.611 10.7305L110.979 4.30192L111.002 4.23884H110.935H109.553C109.375 4.23884 109.206 4.17502 109.082 4.06267C108.958 3.95045 108.889 3.79932 108.889 3.64286C108.889 3.48639 108.958 3.33526 109.082 3.22305C109.206 3.11069 109.375 3.04688 109.553 3.04688H114.289C114.467 3.04688 114.636 3.11069 114.76 3.22305C114.884 3.33526 114.953 3.48639 114.953 3.64286C114.953 3.79932 114.884 3.95045 114.76 4.06267C114.636 4.17502 114.467 4.23884 114.289 4.23884H112.433Z" fill="#94A3B8" stroke="#94A3B8" stroke-width="0.09375"/>
<path d="M145.953 12.75C145.953 12.9373 145.883 13.1164 145.758 13.2481C145.633 13.3797 145.465 13.4531 145.289 13.4531H137.711C137.535 13.4531 137.367 13.3797 137.242 13.2481C137.117 13.1164 137.047 12.9373 137.047 12.75C137.047 12.5627 137.117 12.3836 137.242 12.2519C137.367 12.1203 137.535 12.0469 137.711 12.0469H145.289C145.465 12.0469 145.633 12.1203 145.758 12.2519C145.883 12.3836 145.953 12.5627 145.953 12.75ZM144.312 9.72169C143.566 10.5094 142.554 10.952 141.5 10.9531C140.446 10.952 139.434 10.5094 138.688 9.72169C137.942 8.93386 137.522 7.86515 137.521 6.74995V2.25C137.521 2.06273 137.591 1.8836 137.716 1.75191C137.841 1.6203 138.009 1.54688 138.184 1.54688C138.359 1.54688 138.528 1.6203 138.653 1.75191C138.777 1.8836 138.848 2.06273 138.848 2.25V6.75C138.848 7.49098 139.127 8.2021 139.624 8.72678C140.121 9.25155 140.796 9.54688 141.5 9.54688C142.204 9.54688 142.879 9.25155 143.376 8.72678C143.873 8.2021 144.152 7.49098 144.152 6.75V2.25C144.152 2.06273 144.223 1.8836 144.347 1.75191C144.472 1.6203 144.641 1.54688 144.816 1.54688C144.991 1.54688 145.159 1.6203 145.284 1.75191C145.409 1.8836 145.479 2.06273 145.479 2.25V6.74995C145.478 7.86515 145.058 8.93386 144.312 9.72169Z" fill="#94A3B8" stroke="#94A3B8" stroke-width="0.09375"/>
<path d="M178.261 8.23573H178.158L178.225 8.31327C178.655 8.81035 178.886 9.44976 178.873 10.1078H178.873V10.1087C178.873 11.0335 178.375 11.9248 177.5 12.5521L177.5 12.5521C176.692 13.1326 175.625 13.4531 174.5 13.4531C173.375 13.4531 172.308 13.1326 171.5 12.5521L171.5 12.5521C170.625 11.9248 170.127 11.0335 170.127 10.1087C170.127 9.91352 170.204 9.72636 170.342 9.5884C170.479 9.45044 170.666 9.37296 170.86 9.37296C171.054 9.37296 171.241 9.45044 171.378 9.5884C171.516 9.72636 171.593 9.91352 171.593 10.1087C171.593 10.6257 171.935 11.095 172.463 11.4325C172.993 11.7706 173.717 11.9817 174.5 11.9817C175.283 11.9817 176.007 11.7706 176.537 11.4325C177.065 11.095 177.407 10.6257 177.407 10.1087C177.407 9.678 177.249 9.3356 176.875 9.03816C176.505 8.74352 175.923 8.493 175.076 8.23773L175.076 8.23573H175.062H168.78C168.586 8.23573 168.399 8.15826 168.262 8.0203C168.124 7.88233 168.047 7.69518 168.047 7.5C168.047 7.30482 168.124 7.11767 168.262 6.9797C168.399 6.84174 168.586 6.76427 168.78 6.76427H180.22C180.414 6.76427 180.601 6.84174 180.738 6.9797C180.876 7.11767 180.953 7.30482 180.953 7.5C180.953 7.69518 180.876 7.88233 180.738 8.0203C180.601 8.15826 180.414 8.23573 180.22 8.23573H178.261ZM171.58 5.4116C171.443 5.54956 171.257 5.62704 171.062 5.62704C170.868 5.62704 170.681 5.54956 170.544 5.4116C170.406 5.27364 170.329 5.08648 170.329 4.8913C170.329 2.99253 172.111 1.54688 174.5 1.54688C176.193 1.54688 177.597 2.27757 178.26 3.49235C178.342 3.6619 178.356 3.85669 178.299 4.0365C178.242 4.21665 178.119 4.36792 177.954 4.459C177.789 4.55008 177.595 4.57401 177.413 4.52586C177.232 4.4778 177.076 4.36161 176.977 4.20124C176.568 3.45564 175.638 3.01834 174.5 3.01834C173.735 3.01834 173.061 3.21588 172.576 3.54831C172.092 3.88098 171.795 4.35065 171.795 4.8913C171.795 5.08648 171.718 5.27364 171.58 5.4116Z" fill="#94A3B8" stroke="#94A3B8" stroke-width="0.09375"/>
<path d="M3.29715 34.5169L3.29712 34.5167C3.26707 34.2914 3.1936 34.0749 3.08121 33.8802C2.96882 33.6854 2.81985 33.5165 2.64336 33.3835L2.6433 33.3835C2.29108 33.1172 1.85401 33.0032 1.42342 33.065C0.992852 33.1268 0.60139 33.3597 0.331146 33.7156C0.227669 33.8541 0.145566 34.0087 0.087851 34.1738C0.029202 34.3487 0.0390512 34.5407 0.115186 34.708C0.191338 34.8754 0.327439 35.0042 0.493453 35.0671C0.659398 35.1301 0.8424 35.1224 1.00302 35.0457C1.16372 34.9689 1.2895 34.829 1.35248 34.6557L1.35277 34.6549L1.35278 34.6549C1.36299 34.6284 1.37688 34.6034 1.39404 34.5808L1.3946 34.5801L1.39461 34.5801C1.44848 34.5122 1.5256 34.4678 1.61048 34.4566C1.69518 34.4455 1.78056 34.4684 1.8492 34.5203C1.88029 34.5428 1.90648 34.5715 1.92623 34.6048C1.94609 34.6382 1.95905 34.6754 1.96439 34.7141L1.96443 34.7144C1.96925 34.7511 1.96683 34.7884 1.9573 34.8241C1.94782 34.8596 1.93149 34.8929 1.9092 34.9218L1.90203 34.9316L1.90174 34.932L0.181203 37.3285L3.29715 34.5169ZM3.29715 34.5169C3.32785 34.7386 3.31548 34.9645 3.26078 35.1811C3.20609 35.3977 3.11021 35.6005 2.97892 35.7776L2.97849 35.7782L2.12167 36.9726L2.06844 37.0468M3.29715 34.5169L2.06844 37.0468M2.06844 37.0468H2.15976M2.06844 37.0468H2.15976M2.15976 37.0468H2.63977C2.81766 37.0468 2.98868 37.1204 3.11508 37.2521C3.24154 37.3838 3.31291 37.5629 3.31291 37.75C3.31291 37.9371 3.24154 38.1161 3.11508 38.2479C2.98868 38.3795 2.81766 38.4531 2.63977 38.4531H0.71974C0.719734 38.4531 0.719727 38.4531 0.71972 38.4531C0.595263 38.4531 0.473136 38.417 0.366977 38.3486C0.260791 38.2803 0.174688 38.1824 0.118526 38.0656C0.0623574 37.9489 0.0384268 37.818 0.0495222 37.6877C0.0606164 37.5574 0.10627 37.4331 0.181184 37.3285L2.15976 37.0468ZM1.0066 28.454V28.3886L0.944667 28.4096C0.78501 28.4638 0.611699 28.4537 0.458741 28.3812C0.30572 28.3088 0.183822 28.1789 0.117612 28.0168C0.051387 27.8546 0.0458793 27.6724 0.102221 27.5062C0.158484 27.3402 0.272164 27.2027 0.420329 27.1203L1.37976 26.6206C1.48223 26.5673 1.59594 26.5422 1.71013 26.5476C1.82433 26.553 1.93544 26.5887 2.03293 26.6514C2.13043 26.7142 2.21114 26.802 2.26721 26.9068C2.3233 27.0115 2.35283 27.1295 2.35289 27.2496V31.2498C2.35289 31.4368 2.28152 31.6159 2.15506 31.7476C2.02866 31.8793 1.85764 31.9529 1.67974 31.9529C1.50185 31.9529 1.33083 31.8793 1.20443 31.7476C1.07797 31.6159 1.0066 31.4368 1.0066 31.2498V28.454ZM1.88594 34.6287C1.90256 34.6567 1.91346 34.6879 1.91795 34.7205L1.82135 34.558C1.84733 34.5767 1.86932 34.6008 1.88594 34.6287ZM11.9531 32.7498C11.9531 32.9369 11.8818 33.116 11.7553 33.2477C11.6289 33.3794 11.4579 33.453 11.28 33.453H5.27983C5.10194 33.453 4.93092 33.3794 4.80452 33.2477C4.67806 33.116 4.60669 32.9369 4.60669 32.7498C4.60669 32.5627 4.67806 32.3837 4.80452 32.2519C4.93092 32.1203 5.10194 32.0467 5.27983 32.0467H11.28C11.4579 32.0467 11.6289 32.1203 11.7553 32.2519C11.8818 32.3837 11.9531 32.5627 11.9531 32.7498ZM11.28 29.4528H5.27983C5.10194 29.4528 4.93092 29.3792 4.80452 29.2476C4.67806 29.1158 4.60669 28.9368 4.60669 28.7497C4.60669 28.5626 4.67806 28.3835 4.80452 28.2518C4.93092 28.1201 5.10194 28.0465 5.27983 28.0465H11.28C11.4579 28.0465 11.6289 28.1201 11.7553 28.2518C11.8818 28.3835 11.9531 28.5626 11.9531 28.7497C11.9531 28.9368 11.8818 29.1158 11.7553 29.2476C11.6289 29.3792 11.4579 29.4528 11.28 29.4528ZM5.27983 36.0468H11.28C11.4579 36.0468 11.6289 36.1204 11.7553 36.2521C11.8818 36.3838 11.9531 36.5629 11.9531 36.7499C11.9531 36.937 11.8818 37.1161 11.7553 37.2478C11.6289 37.3795 11.4579 37.4531 11.28 37.4531H5.27983C5.10194 37.4531 4.93092 37.3795 4.80452 37.2478C4.67806 37.1161 4.60669 36.937 4.60669 36.7499C4.60669 36.5629 4.67806 36.3838 4.80452 36.2521C4.93092 36.1204 5.10194 36.0468 5.27983 36.0468Z" fill="#94A3B8" stroke="#94A3B8" stroke-width="0.09375"/>
<path d="M36.9269 28.9C36.9269 28.7344 36.997 28.575 37.1229 28.4569C37.249 28.3387 37.4205 28.2719 37.6 28.2719H45.28C45.4595 28.2719 45.631 28.3387 45.7571 28.4569C45.883 28.575 45.9531 28.7344 45.9531 28.9C45.9531 29.0656 45.883 29.225 45.7571 29.3431C45.631 29.4613 45.4595 29.5281 45.28 29.5281H37.6C37.4205 29.5281 37.249 29.4613 37.1229 29.3431C36.997 29.225 36.9269 29.0656 36.9269 28.9ZM37.6 31.8719H45.28C45.4595 31.8719 45.631 31.9387 45.7571 32.0569C45.883 32.175 45.9531 32.3344 45.9531 32.5C45.9531 32.6656 45.883 32.825 45.7571 32.9431C45.631 33.0613 45.4595 33.1281 45.28 33.1281H37.6C37.4205 33.1281 37.249 33.0613 37.1229 32.9431C36.997 32.825 36.9269 32.6656 36.9269 32.5C36.9269 32.3344 36.997 32.175 37.1229 32.0569C37.249 31.9387 37.4205 31.8719 37.6 31.8719ZM37.6 35.4719H45.28C45.4595 35.4719 45.631 35.5387 45.7571 35.6569C45.883 35.775 45.9531 35.9344 45.9531 36.1C45.9531 36.2656 45.883 36.425 45.7571 36.5431C45.631 36.6613 45.4595 36.7281 45.28 36.7281H37.6C37.4205 36.7281 37.249 36.6613 37.1229 36.5431C36.997 36.425 36.9269 36.2656 36.9269 36.1C36.9269 35.9344 36.997 35.775 37.1229 35.6569C37.249 35.5387 37.4205 35.4719 37.6 35.4719ZM34.4515 31.7914C34.6018 31.6973 34.7788 31.6469 34.96 31.6469C35.2031 31.6469 35.4357 31.7374 35.6068 31.8978C35.7777 32.0581 35.8731 32.2747 35.8731 32.5C35.8731 32.668 35.82 32.8326 35.72 32.9728C35.6201 33.1131 35.4776 33.2229 35.3104 33.2878C35.1432 33.3527 34.959 33.3698 34.7813 33.3366C34.6036 33.3035 34.4408 33.2218 34.3132 33.1022C34.1857 32.9827 34.0993 32.8308 34.0643 32.6659C34.0293 32.501 34.0472 32.33 34.116 32.1745C34.1847 32.019 34.3013 31.8855 34.4515 31.7914ZM34.4515 28.1914C34.6018 28.0973 34.7788 28.0469 34.96 28.0469C35.2031 28.0469 35.4357 28.1374 35.6068 28.2978C35.7777 28.4581 35.8731 28.6747 35.8731 28.9C35.8731 29.068 35.82 29.2326 35.72 29.3728C35.6201 29.5131 35.4776 29.6229 35.3104 29.6878C35.1432 29.7527 34.959 29.7698 34.7813 29.7366C34.6036 29.7035 34.4408 29.6218 34.3132 29.5022C34.1857 29.3827 34.0993 29.2308 34.0643 29.0659C34.0293 28.901 34.0472 28.73 34.116 28.5745C34.1847 28.419 34.3013 28.2855 34.4515 28.1914ZM34.4515 35.3914C34.6018 35.2973 34.7788 35.2469 34.96 35.2469C35.2031 35.2469 35.4357 35.3374 35.6068 35.4978C35.7777 35.6581 35.8731 35.8747 35.8731 36.1C35.8731 36.268 35.82 36.4326 35.72 36.5728C35.6201 36.7131 35.4776 36.8229 35.3104 36.8878C35.1432 36.9527 34.959 36.9698 34.7813 36.9366C34.6036 36.9035 34.4408 36.8218 34.3132 36.7022C34.1857 36.5827 34.0993 36.4308 34.0643 36.2659C34.0293 36.101 34.0472 35.93 34.116 35.7745C34.1847 35.619 34.3013 35.4855 34.4515 35.3914Z" fill="#94A3B8" stroke="#94A3B8" stroke-width="0.09375"/>
<path d="M81 26.5H70.8523L72.9367 28.6714H74.692L74.0886 29.9857L75.6793 31.5857L76.8861 28.6714H81V26.5Z" fill="#94A3B8"/>
<path d="M73.3755 37.0143H71.2363L72.9916 32.8429L68 27.4714L68.8776 26.5571L79.4641 37.5857L78.5865 38.5L74.5274 34.3286L73.3755 37.0143Z" fill="#94A3B8"/>
<path d="M104.913 32.5363L108.907 35.7911C108.907 35.7911 108.907 35.7911 108.907 35.7911C109.051 35.9089 109.138 36.0736 109.149 36.2486C109.16 36.4234 109.095 36.596 108.967 36.7282C108.839 36.8606 108.658 36.9415 108.464 36.952C108.269 36.9625 108.079 36.9016 107.934 36.7837L103.292 32.9963L103.291 32.9962C103.214 32.9336 103.153 32.857 103.111 32.7715C103.069 32.686 103.047 32.5935 103.047 32.5C103.047 32.4065 103.069 32.314 103.111 32.2285C103.153 32.143 103.214 32.0664 103.291 32.0038L103.292 32.0037L107.934 28.2163C108.079 28.0984 108.269 28.0375 108.464 28.048C108.658 28.0585 108.839 28.1394 108.967 28.2718C109.095 28.404 109.16 28.5766 109.149 28.7514C109.138 28.9264 109.051 29.0911 108.907 29.2089C108.907 29.2089 108.907 29.2089 108.907 29.2089L104.913 32.4637L104.868 32.5L104.913 32.5363ZM118.708 32.0037L118.709 32.0038C118.786 32.0664 118.847 32.143 118.889 32.2285C118.931 32.314 118.953 32.4065 118.953 32.5C118.953 32.5935 118.931 32.686 118.889 32.7715C118.847 32.857 118.786 32.9336 118.709 32.9962L118.708 32.9963L114.066 36.7837C113.994 36.842 113.911 36.887 113.82 36.916C113.729 36.9449 113.632 36.9572 113.536 36.952C113.44 36.9468 113.346 36.9242 113.26 36.8858C113.173 36.8473 113.096 36.7937 113.033 36.7282C112.969 36.6627 112.921 36.5866 112.89 36.5044C112.859 36.4222 112.845 36.3352 112.851 36.2486C112.857 36.1619 112.881 36.0769 112.922 35.9984C112.964 35.9199 113.022 35.8495 113.093 35.7911C113.093 35.7911 113.093 35.7911 113.093 35.7911L117.085 32.5363L117.13 32.5L117.085 32.4637L113.093 29.2089C113.093 29.2089 113.093 29.2089 113.093 29.2089C113.022 29.1505 112.964 29.0801 112.922 29.0016C112.881 28.9231 112.857 28.8381 112.851 28.7514C112.845 28.6648 112.859 28.5778 112.89 28.4956C112.921 28.4134 112.969 28.3373 113.033 28.2718C113.096 28.2063 113.173 28.1527 113.26 28.1142C113.346 28.0758 113.44 28.0532 113.536 28.048C113.632 28.0428 113.729 28.0551 113.82 28.084C113.911 28.113 113.994 28.158 114.066 28.2163L118.708 32.0037Z" fill="#94A3B8" stroke="#94A3B8" stroke-width="0.09375"/>
<path d="M146.625 34.375C146.625 32.6073 146.625 31.7234 147.174 31.1742C147.723 30.625 148.607 30.625 150.375 30.625H151C152.768 30.625 153.652 30.625 154.201 31.1742C154.75 31.7234 154.75 32.6073 154.75 34.375V35C154.75 36.7677 154.75 37.6516 154.201 38.2008C153.652 38.75 152.768 38.75 151 38.75H150.375C148.607 38.75 147.723 38.75 147.174 38.2008C146.625 37.6516 146.625 36.7677 146.625 35V34.375Z" stroke="#94A3B8" stroke-linecap="round" stroke-linejoin="round"/>
<path d="M151.625 30.625C151.623 28.7768 151.595 27.8195 151.057 27.164C150.954 27.0374 150.838 26.9214 150.711 26.8175C150.019 26.25 148.992 26.25 146.938 26.25C144.883 26.25 143.855 26.25 143.164 26.8175C143.037 26.9214 142.921 27.0374 142.817 27.164C142.25 27.8555 142.25 28.8828 142.25 30.9375C142.25 32.9922 142.25 34.0195 142.817 34.711C142.921 34.8376 143.037 34.9536 143.164 35.0575C143.82 35.5955 144.777 35.6234 146.625 35.6249" stroke="#94A3B8" stroke-linecap="round" stroke-linejoin="round"/>
</svg>
