<svg width="32" height="32" viewBox="0 0 32 32" fill="none" xmlns="http://www.w3.org/2000/svg">
<path d="M4.15012 12.0001H27.85M9.39828 4.06731L16.0001 12.0002L22.613 4.07287M27.5814 11.3721L22.9834 4.47499C22.8676 4.30133 22.8097 4.2145 22.7332 4.15164C22.6655 4.09599 22.5875 4.05424 22.5037 4.02877C22.4089 4 22.3046 4 22.0959 4H9.90426C9.69554 4 9.59119 4 9.49646 4.02877C9.4126 4.05424 9.33459 4.09599 9.26688 4.15164C9.1904 4.2145 9.13251 4.30133 9.01674 4.47499L4.41868 11.3721C4.26796 11.5982 4.1926 11.7113 4.16559 11.8329C4.14174 11.9403 4.14484 12.0519 4.17461 12.1578C4.20833 12.2778 4.28984 12.3865 4.45287 12.6038L15.1467 26.8624C15.4362 27.2484 15.581 27.4414 15.7584 27.5104C15.9138 27.5709 16.0863 27.5709 16.2417 27.5104C16.4192 27.4414 16.5639 27.2484 16.8534 26.8624L27.5473 12.6038C27.7103 12.3865 27.7918 12.2778 27.8255 12.1578C27.8553 12.0519 27.8584 11.9403 27.8345 11.8329C27.8075 11.7113 27.7322 11.5982 27.5814 11.3721Z" stroke="#0077FF" stroke-width="2" stroke-linecap="round" stroke-linejoin="round"/>
</svg>
