<svg width="20" height="20" viewBox="0 0 20 20" fill="none" xmlns="http://www.w3.org/2000/svg">
<g clip-path="url(#clip0_1_1549)">
<path d="M10 15.1034C9 15.1034 8.06898 14.8276 7.24137 14.2759C6.41379 13.7241 5.79309 13.0345 5.3793 12.1724L1.24137 5C0.379297 6.55172 0 8.24137 0 10C0 12.5172 0.827578 14.6896 2.44828 16.5517C4.06898 18.4138 6.10344 19.5172 8.51727 19.8966L11.4138 14.8621C11.1379 14.9655 10.6207 15.1034 10 15.1034Z" fill="white"/>
<path d="M6.86209 5.86207C7.79311 5.13793 8.8276 4.82758 10 4.82758H18.5862C17.6897 3.31035 16.4828 2.20687 14.9655 1.3448C13.4483 0.448281 11.7931 0 10 0C8.4483 0 6.96552 0.344844 5.62072 1C4.27592 1.65516 3.00002 2.6207 2.10345 3.86207L5.00002 8.6207C5.27588 7.51723 5.93103 6.58621 6.86209 5.86207Z" fill="white"/>
<path d="M19.2414 6.24121H13.4483C14.4483 7.24121 15.1379 8.55156 15.1379 9.99985C15.1379 11.0689 14.8276 12.0344 14.2414 12.9309L10.1035 19.9999C12.8276 19.9654 15.1724 18.9999 17.1035 17.0344C19.0345 15.0689 20 12.724 20 9.99985C20 8.72399 19.7931 7.37914 19.2414 6.24121Z" fill="white"/>
<path d="M9.99999 6.20703C12.069 6.20703 13.7931 7.93117 13.7931 10.0001C13.7931 12.069 12.069 13.7932 9.99999 13.7932C7.93101 13.7932 6.20691 12.0691 6.20691 10.0001C6.20691 7.93113 7.93101 6.20703 9.99999 6.20703Z" fill="white"/>
</g>
<defs>
<clipPath id="clip0_1_1549">
<rect width="20" height="20" fill="white"/>
</clipPath>
</defs>
</svg>
