<svg width="24" height="32" viewBox="0 0 24 32" fill="none" xmlns="http://www.w3.org/2000/svg">
<path d="M12.1569 11.1254C11.674 11.3934 11.4998 12.0021 11.7677 12.485C12.0357 12.9679 12.6444 13.1422 13.1273 12.8742L12.1569 11.1254ZM6.47219 12.8742C6.95511 13.1422 7.56382 12.9679 7.83179 12.485C8.09975 12.0021 7.9255 11.3934 7.44259 11.1254L6.47219 12.8742ZM20.7276 3.15671C20.3019 2.80489 19.6716 2.86481 19.3198 3.29053C18.968 3.71626 19.0279 4.34658 19.4536 4.69839L20.7276 3.15671ZM22.6476 6.04057L23.3769 5.35644C23.348 5.32561 23.3172 5.29665 23.2846 5.26973L22.6476 6.04057ZM22.8997 7.18219L23.8224 7.56767L23.8225 7.56742L22.8997 7.18219ZM22.5895 7.59253L23.2527 8.34092L23.2528 8.34084L22.5895 7.59253ZM19.4274 9.05872C19.014 9.42503 18.9759 10.057 19.3422 10.4704C19.7085 10.8837 20.3405 10.9218 20.7539 10.5555L19.4274 9.05872ZM15.8082 5.83872C15.2559 5.83872 14.8082 6.28644 14.8082 6.83872C14.8082 7.391 15.2559 7.83871 15.8082 7.83871V5.83872ZM21.2884 7.83871C21.8407 7.83871 22.2884 7.391 22.2884 6.83872C22.2884 6.28644 21.8407 5.83872 21.2884 5.83872V7.83871ZM13.1273 12.8742C15.2357 11.7043 16.6663 9.45317 16.6663 6.86656H14.6663C14.6663 8.69751 13.6556 10.2938 12.1569 11.1254L13.1273 12.8742ZM16.6663 6.86656C16.6663 3.07426 13.592 0 9.79977 0V1.99999C12.4875 1.99999 14.6663 4.17883 14.6663 6.86656H16.6663ZM9.79977 0C6.00744 0 2.93318 3.07426 2.93318 6.86656H4.93317C4.93317 4.17883 7.112 1.99999 9.79977 1.99999V0ZM2.93318 6.86656C2.93318 9.45317 4.3638 11.7043 6.47219 12.8742L7.44259 11.1254C5.94389 10.2938 4.93317 8.69751 4.93317 6.86656H2.93318ZM19.4536 4.69839L22.0105 6.81141L23.2846 5.26973L20.7276 3.15671L19.4536 4.69839ZM21.9182 6.7247C21.9804 6.79095 22.0073 6.82977 22.0169 6.84555C22.0245 6.8581 22.0139 6.84392 22.0061 6.80831C22.0024 6.79144 22.0004 6.77439 22 6.7585C21.9996 6.74286 22.0008 6.73207 22.0014 6.72756C22.0025 6.72034 22.0006 6.74004 21.9769 6.79696L23.8225 7.56742C23.9609 7.23596 24.0583 6.8324 23.9601 6.38212C23.8658 5.9496 23.6208 5.61645 23.3769 5.35644L21.9182 6.7247ZM21.977 6.79671C21.9826 6.78321 21.9858 6.78131 21.9784 6.79084C21.9706 6.80085 21.9547 6.81892 21.9262 6.84421L23.2528 8.34084C23.4511 8.16509 23.6783 7.91247 23.8224 7.56767L21.977 6.79671ZM21.9262 6.84414L19.4274 9.05872L20.7539 10.5555L23.2527 8.34092L21.9262 6.84414ZM15.8082 7.83871H21.2884V5.83872H15.8082V7.83871Z" fill="#C1DEFF"/>
<path d="M4.71566 18.0905L7.59988 20.6122V7.60078C7.59988 6.38525 8.58526 5.39987 9.80075 5.39987C11.0156 5.39987 12.0007 6.38409 12.0017 7.59888L12.0064 14.5855L15.8731 15.2122C18.3689 15.5919 19.6168 15.7817 20.4958 16.3157C21.9478 17.1977 22.9997 18.5997 22.9997 20.456C22.9997 21.803 22.6714 22.7066 21.8733 25.1345C21.3668 26.6749 21.1137 27.4452 20.7008 28.055C20.0211 29.0588 19.0182 29.7918 17.8641 30.1282C17.163 30.3327 16.3624 30.3327 14.7609 30.3327H13.4036C11.2744 30.3327 10.2099 30.3327 9.26235 29.9366C9.09237 29.8656 8.92625 29.7853 8.76472 29.6963C7.86394 29.2003 7.19267 28.3626 5.85015 26.6871L1.50393 21.2628C0.83605 20.4292 0.831592 19.2364 1.49322 18.3976C2.28845 17.3897 3.74912 17.2504 4.71566 18.0905Z" stroke="#0077FF" stroke-width="2" stroke-linecap="round" stroke-linejoin="round"/>
</svg>
